<svg xmlns="http://www.w3.org/2000/svg" viewBox="0 0 572.2 305.51"><defs><style>.cls-1{fill:#f66d27;}.cls-2{fill:#0192d8;}.cls-3{fill:#7dc347;}.cls-4{fill:#fff;}.cls-5{fill:#6d6d73;}</style></defs><g id="Layer_1" data-name="Layer 1"><polygon class="cls-1" points="0 203.87 123 251.37 123 96.37 0 49.37 0 203.87"/><polygon class="cls-2" points="126.72 97.24 126.72 248.73 252.82 202.43 252.82 52 126.72 97.24"/><polygon class="cls-3" points="125.19 0 4.18 48.28 126.59 93.22 249 49.37 125.19 0"/><polygon class="cls-4" points="18.87 186.16 104.13 217.94 104.13 114.23 18.87 82.79 18.87 186.16"/><polygon class="cls-4" points="126.27 27.19 75.62 49.59 157.47 82.79 217 60.87 126.27 27.19"/><polygon class="cls-4" points="218.18 62.84 161.35 83.24 161.35 239.31 218.18 217.94 218.18 62.84"/></g><g id="Layer_2" data-name="Layer 2"><path class="cls-5" d="M321.18,91.23c-4,.45-4.64,1.08-6.91,4.7-2.55,4.13-4.64,8-7.41,13.08a6,6,0,0,0-.85,3.34v7c0,4.7.51,5,5.77,5.55v1.58H295.53v-1.58c5.16-.68,5.55-.79,5.55-5.55V112c0-1.13-.22-1.64-1.13-3.29-2-3.67-3.91-7.24-7-12.56-2.21-3.85-2.78-4.53-6.63-4.93V89.65h13.93v1.58c-4.08.57-3.85,1.3-2.83,3.23,2.38,4.36,5,9.45,7.41,13.7,2-3.79,5.27-10,6.85-13.08,1.31-2.83,1.14-3.4-3.34-3.85V89.65h12.8Z" transform="translate(-18.29 -7.13)"/><path class="cls-5" d="M328.59,100.91c7.08,0,12.34,5.38,12.34,12.68,0,9.17-6.79,13.53-12.34,13.53A12.43,12.43,0,0,1,316,114.5C316,105.27,323.21,100.91,328.59,100.91Zm-.68,1.93c-3.45,0-6.57,3.34-6.57,9.9,0,7.19,3.17,12.4,7.82,12.4,3.51,0,6.45-2.55,6.45-10.3C335.61,108.22,332.89,102.84,327.91,102.84Z" transform="translate(-18.29 -7.13)"/><path class="cls-5" d="M372.35,125.14a65.32,65.32,0,0,0-8.66,2v-4.36c-3.06,2.55-5.55,4.36-8.67,4.36-3.79,0-7.07-2.32-7.07-8.49v-11c0-3.06-.45-3.4-1.87-3.68l-1.59-.28v-1.48a75.82,75.82,0,0,0,8.1-1c-.17,1.81-.17,4.52-.17,8.26v7.7c0,5,2.6,6.4,5.15,6.4a9,9,0,0,0,6.12-2.72V107.65c0-3.06-.68-3.45-2.61-3.74l-1.81-.22v-1.48a82.52,82.52,0,0,0,8.89-1v19c0,2.83.45,3.23,2.6,3.34l1.59.06Z" transform="translate(-18.29 -7.13)"/><path class="cls-5" d="M388.19,126.44h-13v-1.58c3.57-.34,3.91-.62,3.91-4.3V108.78c0-3.73-.23-3.9-3.51-4.3v-1.42a31.19,31.19,0,0,0,8-2.32V107c2-2.94,4.36-6.06,7.19-6.06,2.1,0,3.28,1.3,3.28,2.72a3.78,3.78,0,0,1-1.92,3.11,1.11,1.11,0,0,1-1.47-.11,3.58,3.58,0,0,0-2.55-1.42c-1.19,0-3.28,1.76-4.53,4.65V120.5c0,3.74.28,4,4.64,4.36Z" transform="translate(-18.29 -7.13)"/></g><g id="Layer_3" data-name="Layer 3"><path class="cls-5" d="M322,178.23a67.34,67.34,0,0,1-2.88,7.93,47.6,47.6,0,0,1-9.62,1.26c-12.55,0-19-8.35-19-17.54,0-10.71,8.14-18.12,19.91-18.12a53.9,53.9,0,0,1,9.93,1.21c.21,2.36.57,5.51,1,8.14l-1.62.37c-1.05-3.52-2.32-5.68-5-6.78a14.4,14.4,0,0,0-5.52-1c-8.66,0-13.23,6.41-13.23,15.08,0,10.13,5.25,16.65,13.76,16.65,5.35,0,8-2.47,10.66-7.73Z" transform="translate(-18.29 -7.13)"/><path class="cls-5" d="M338.37,163c6.57,0,11.45,5,11.45,11.76,0,8.51-6.3,12.55-11.45,12.55a11.54,11.54,0,0,1-11.66-11.71C326.71,167,333.39,163,338.37,163Zm-.63,1.78c-3.2,0-6.09,3.1-6.09,9.19,0,6.67,2.94,11.51,7.25,11.51,3.26,0,6-2.37,6-9.56C344.89,169.72,342.37,164.73,337.74,164.73Z" transform="translate(-18.29 -7.13)"/><path class="cls-5" d="M382.07,186.63v-1.47c3.1-.31,3.46-.52,3.46-4.2v-8.77c0-3.73-1.26-6.09-4.51-6.09-2,0-3.84,1.1-5.83,2.73.05.63.15,1.26.15,2.26v10.19c0,3.31.48,3.57,3.37,3.88v1.47H367.47v-1.47c3.25-.31,3.73-.52,3.73-4v-9c0-3.89-1.21-6-4.42-6-2.1,0-4.14,1.42-5.77,2.73v12.34c0,3.47.36,3.68,3.36,4v1.47H353.08v-1.47c3.46-.31,3.78-.52,3.78-4V170.3c0-3.36-.21-3.57-3.15-4.1v-1.31a28.36,28.36,0,0,0,7.3-2.1V167a36.72,36.72,0,0,1,3.88-2.73A7.15,7.15,0,0,1,369,163a6.14,6.14,0,0,1,5.73,4.3c1.47-1.15,2.83-2.05,4.15-2.94a8,8,0,0,1,4.15-1.36c4.09,0,6.61,2.94,6.61,8.09v10.13c0,3.52.32,3.68,3.31,4v1.47Z" transform="translate(-18.29 -7.13)"/><path class="cls-5" d="M395.45,164.68a34.17,34.17,0,0,0,7.62-2.26v4.2c.16-.1,4.36-2.52,4.57-2.62a7.3,7.3,0,0,1,3-1.05c5.78,0,9.3,4.83,9.3,10,0,8-6.3,13-13.18,14.28a8.64,8.64,0,0,1-3.73-.94v7.09c0,3.89.42,4.2,4.46,4.57v1.47H395.09V198c3.41-.37,3.83-.63,3.83-4.15v-23.9c0-3.15-.1-3.36-3.47-3.83Zm7.62,18a7.61,7.61,0,0,0,5,2.05c4.57,0,7.51-3.83,7.51-9.72,0-5.67-3.31-8.87-7-8.87-1.84,0-4,1.21-5.46,2.26Z" transform="translate(-18.29 -7.13)"/><path class="cls-5" d="M440.46,187.26a3.89,3.89,0,0,1-2.47-1,5,5,0,0,1-1.26-2.37c-2.1,1.42-4.67,3.36-6.3,3.36A6.44,6.44,0,0,1,424,180.8c0-2.57,1.42-4.25,4.31-5.25,3.2-1.1,7.14-2.47,8.3-3.41v-1c0-3.73-1.89-5.89-4.62-5.89a3,3,0,0,0-2.47,1.21,11.16,11.16,0,0,0-1.42,3.42,1.47,1.47,0,0,1-1.53,1.21,2.54,2.54,0,0,1-2.31-2.32c0-.73.69-1.36,1.74-2.1a22.09,22.09,0,0,1,7.56-3.67,6.91,6.91,0,0,1,7.09,7.51v10.13c0,2.42.89,3.15,1.84,3.15a4.23,4.23,0,0,0,1.89-.57l.53,1.47ZM436.63,174c-1.16.57-3.68,1.68-4.89,2.2-2,.9-3.2,1.89-3.2,3.84a3.82,3.82,0,0,0,3.78,4,7,7,0,0,0,4.31-1.89Z" transform="translate(-18.29 -7.13)"/><path class="cls-5" d="M462.2,186.63v-1.47c3.05-.31,3.36-.68,3.36-4.25v-8.67c0-3.67-1.31-6.14-4.78-6.14a9.19,9.19,0,0,0-5.83,2.73v12.29c0,3.62.32,3.73,3.42,4v1.47H447v-1.47c3.47-.36,3.78-.57,3.78-4V170.3c0-3.41-.36-3.57-3.2-4v-1.37a29.65,29.65,0,0,0,7.35-2.1v4.15c1.05-.74,2.21-1.52,3.57-2.42a8.1,8.1,0,0,1,4.36-1.57c4.21,0,6.83,3.1,6.83,8.19v10c0,3.57.32,3.73,3.36,4v1.47Z" transform="translate(-18.29 -7.13)"/><path class="cls-5" d="M498.17,165c-2.73.43-3.31.85-4.62,3.84s-2.73,6.51-6.35,15.65a141.88,141.88,0,0,0-5.2,14.39c-.32,1.1-.9,1.37-1.58,1.37-1.68,0-3.2-1.21-3.2-2.52,0-.69.37-1.16,1.15-1.84a11.91,11.91,0,0,0,3.52-3.89c1.1-2.2,1.89-4,2.16-4.73a3,3,0,0,0-.11-2.15c-2.05-6-4.88-12.45-6.46-16.23-1.16-2.89-1.63-3.52-4.52-3.89v-1.41h10.61V165c-2.41.37-2.68.9-2,2.84l5.09,12.92c1.47-3.62,3.57-9.45,4.67-12.76.64-2,.27-2.57-2.78-3v-1.41h9.61Z" transform="translate(-18.29 -7.13)"/></g><g id="Layer_4" data-name="Layer 4"><path class="cls-5" d="M53.65,289.45a70.63,70.63,0,0,1-3,8.28,50,50,0,0,1-10,1.31c-13.1,0-19.79-8.71-19.79-18.31,0-11.18,8.5-18.91,20.78-18.91A55.52,55.52,0,0,1,52,263.08c.22,2.46.6,5.75,1,8.5l-1.7.38c-1.09-3.67-2.41-5.92-5.21-7.07a14.92,14.92,0,0,0-5.75-1c-9,0-13.82,6.68-13.82,15.73C26.51,290.16,32,297,40.88,297c5.59,0,8.33-2.58,11.13-8.06Z" transform="translate(-18.29 -7.13)"/><path class="cls-5" d="M83.91,297a62.71,62.71,0,0,0-8.38,1.92v-4.22c-3,2.46-5.38,4.22-8.39,4.22-3.68,0-6.86-2.25-6.86-8.22V280c0-3-.43-3.29-1.81-3.57l-1.53-.27v-1.42a74,74,0,0,0,7.84-1c-.17,1.75-.17,4.39-.17,8v7.46c0,4.82,2.53,6.19,5,6.19a8.66,8.66,0,0,0,5.93-2.63V280c0-3-.66-3.35-2.53-3.62l-1.75-.22v-1.42a78.66,78.66,0,0,0,8.61-1v18.36c0,2.75.44,3.13,2.52,3.24l1.53.05Z" transform="translate(-18.29 -7.13)"/><path class="cls-5" d="M100.64,280.68c-1-3.18-2.42-5.38-5.76-5.38a3.33,3.33,0,0,0-3.4,3.57c0,2.35,1.59,3.45,4.66,4.88,4.71,2.24,7.07,3.89,7.07,7.51,0,5-4.6,7.62-8.93,7.62a14.29,14.29,0,0,1-6.53-1.54c-.27-1.59-.77-4.6-1-6.41l1.59-.27c1,3.5,2.91,6.35,6.75,6.35a3.65,3.65,0,0,0,3.84-3.72c0-2.47-1.48-3.73-4.39-5.16-3.84-1.86-7-3.62-7-7.56s3.4-7.08,8.55-7.08a27.54,27.54,0,0,1,5.26.72c.17,1.31.55,4.77.83,6.08Z" transform="translate(-18.29 -7.13)"/><path class="cls-5" d="M117,298.17a5.57,5.57,0,0,1-2.36.71c-3.51,0-5.37-2.14-5.37-6.53v-16h-3.79l-.21-.66,1.48-1.59h2.52v-4.6c1-1.1,2.63-2.52,3.67-3.62l.82.11c-.11,2.3-.16,5.48-.16,8.11h6.25a1.72,1.72,0,0,1-.33,2.25h-5.92v14c0,4.44,1.75,5.26,3.18,5.26a7.86,7.86,0,0,0,3.34-.88l.5,1.43Z" transform="translate(-18.29 -7.13)"/><path class="cls-5" d="M134.46,273.49c6.85,0,11.95,5.21,11.95,12.29,0,8.88-6.58,13.1-11.95,13.1a12,12,0,0,1-12.17-12.23C122.29,277.72,129.25,273.49,134.46,273.49Zm-.66,1.87c-3.34,0-6.36,3.23-6.36,9.59,0,7,3.07,12,7.57,12,3.4,0,6.25-2.47,6.25-10C141.26,280.57,138.63,275.36,133.8,275.36Z" transform="translate(-18.29 -7.13)"/><path class="cls-5" d="M180.08,298.22v-1.53c3.23-.33,3.61-.55,3.61-4.39v-9.16c0-3.89-1.31-6.36-4.71-6.36-2.08,0-4,1.16-6.09,2.85a21.13,21.13,0,0,1,.17,2.36v10.64c0,3.45.49,3.73,3.51,4.06v1.53H164.83v-1.53c3.4-.33,3.9-.55,3.9-4.17v-9.43c0-4.06-1.26-6.31-4.61-6.31-2.19,0-4.33,1.48-6,2.85v12.89c0,3.62.38,3.84,3.51,4.17v1.53H149.81v-1.53c3.62-.33,3.95-.55,3.95-4.17V281.17c0-3.51-.22-3.73-3.29-4.28v-1.37a29.14,29.14,0,0,0,7.62-2.19v4.44a37.11,37.11,0,0,1,4.06-2.85,7.41,7.41,0,0,1,4.33-1.43,6.43,6.43,0,0,1,6,4.5c1.53-1.21,3-2.14,4.33-3.07a8.28,8.28,0,0,1,4.33-1.43c4.27,0,6.91,3.07,6.91,8.45v10.58c0,3.67.32,3.84,3.45,4.17v1.53Z" transform="translate(-18.29 -7.13)"/><path class="cls-5" d="M194.71,298.22v-1.53c3.46-.33,3.84-.61,3.84-4.34V281.06c0-3.4-.16-3.62-3.45-4.17v-1.31a36.1,36.1,0,0,0,7.78-2.2v19c0,3.73.39,4,4,4.34v1.53Zm5.7-30.21a3,3,0,0,1-2.9-2.9,3,3,0,0,1,3-3,2.87,2.87,0,0,1,2.8,3A2.92,2.92,0,0,1,200.41,268Z" transform="translate(-18.29 -7.13)"/><path class="cls-5" d="M230.51,291.2c-.71,2.14-1.81,5.27-2.35,7H209.74l-.33-.88c4.77-6.9,9.43-14.2,13.92-21.27H218c-3.89,0-4.55.6-6.69,5.32l-1.53-.49a77.08,77.08,0,0,0,1.7-7.9h1.21c.32.82,1,1.15,3.07,1.15H228.7l.33.82c-4.33,6.58-9.15,14-13.7,21.33h5.86c4.17,0,5.43-1.1,7.9-5.7Z" transform="translate(-18.29 -7.13)"/><path class="cls-5" d="M253,293.56c-3.51,4.39-7.34,5.32-9.1,5.32-6.69,0-10.74-5.48-10.74-11.79a14,14,0,0,1,3.56-9.59,11.24,11.24,0,0,1,8.17-4,8.56,8.56,0,0,1,8.39,8.5c-.06,1.1-.22,1.59-1.1,1.81-1.1.22-8.11.71-14.64.93-.16,7.35,4.33,10.37,8.22,10.37a9.28,9.28,0,0,0,6.36-2.8Zm-9.43-18c-2.52,0-5,2.36-5.75,6.8,3.07,0,6.14,0,9.37-.17,1,0,1.32-.27,1.32-1.09C248.55,278.21,246.63,275.58,243.56,275.58Z" transform="translate(-18.29 -7.13)"/><path class="cls-5" d="M299.54,264.12c-3.84.44-4.5,1-6.69,4.55-2.47,4-4.5,7.78-7.18,12.66a5.84,5.84,0,0,0-.83,3.24v6.74c0,4.55.5,4.88,5.6,5.38v1.53H274.7v-1.53c5-.66,5.37-.77,5.37-5.38v-7.07c0-1.1-.22-1.59-1.09-3.18-1.92-3.56-3.79-7-6.75-12.17-2.13-3.73-2.68-4.39-6.41-4.77v-1.54h13.49v1.54c-3.95.55-3.73,1.26-2.74,3.12,2.3,4.23,4.87,9.16,7.18,13.27,2-3.67,5.1-9.65,6.63-12.66,1.26-2.74,1.1-3.29-3.23-3.73v-1.54h12.39Z" transform="translate(-18.29 -7.13)"/><path class="cls-5" d="M306.72,273.49c6.85,0,11.95,5.21,11.95,12.29,0,8.88-6.58,13.1-11.95,13.1a12,12,0,0,1-12.17-12.23C294.55,277.72,301.51,273.49,306.72,273.49Zm-.66,1.87c-3.34,0-6.36,3.23-6.36,9.59,0,7,3.07,12,7.57,12,3.4,0,6.25-2.47,6.25-10C313.52,280.57,310.89,275.36,306.06,275.36Z" transform="translate(-18.29 -7.13)"/><path class="cls-5" d="M349.1,297a63.19,63.19,0,0,0-8.39,1.92v-4.22c-3,2.46-5.37,4.22-8.39,4.22-3.67,0-6.85-2.25-6.85-8.22V280c0-3-.44-3.29-1.81-3.57l-1.54-.27v-1.42a74,74,0,0,0,7.84-1c-.16,1.75-.16,4.39-.16,8v7.46c0,4.82,2.52,6.19,5,6.19a8.64,8.64,0,0,0,5.92-2.63V280c0-3-.66-3.35-2.52-3.62l-1.76-.22v-1.42a78.66,78.66,0,0,0,8.61-1v18.36c0,2.75.44,3.13,2.52,3.24l1.54.05Z" transform="translate(-18.29 -7.13)"/><path class="cls-5" d="M364.45,298.22H351.84v-1.53c3.45-.33,3.78-.61,3.78-4.17v-11.4c0-3.62-.22-3.79-3.4-4.17v-1.37a30.34,30.34,0,0,0,7.73-2.25v6c1.92-2.85,4.22-5.87,7-5.87,2,0,3.17,1.27,3.17,2.64a3.66,3.66,0,0,1-1.86,3,1.07,1.07,0,0,1-1.42-.11,3.48,3.48,0,0,0-2.47-1.37c-1.15,0-3.18,1.7-4.39,4.5v10.3c0,3.62.28,3.9,4.5,4.23Z" transform="translate(-18.29 -7.13)"/><path class="cls-5" d="M404.41,278.92c5.27.88,9.54,3.4,9.54,8.72a9.46,9.46,0,0,1-5.31,8.44,18.13,18.13,0,0,1-9.49,2.14H385.66v-1.53c4.66-.44,4.94-.94,4.94-5.27v-22c0-4.55-.49-4.94-4.94-5.32v-1.54H400c4.11,0,6.69.72,8.44,1.92a7.17,7.17,0,0,1,3.24,6.14C411.71,275.8,407.48,278.16,404.41,278.92Zm-6.3-.66c6,0,8.5-2.41,8.5-6.9,0-3.84-2.36-6.8-7.62-6.8a5.65,5.65,0,0,0-3.07.55c-.44.33-.61.93-.61,2.68v10.47Zm-2.8,13.05c0,3.95.94,4.94,4.83,4.94,4.27,0,8.44-2.31,8.44-8.06,0-5.59-3.95-8-10.63-8h-2.64Z" transform="translate(-18.29 -7.13)"/><path class="cls-5" d="M430.18,298.22H417.57v-1.53c3.46-.33,3.79-.61,3.79-4.17v-11.4c0-3.62-.22-3.79-3.4-4.17v-1.37a30.57,30.57,0,0,0,7.73-2.25v6c1.92-2.85,4.22-5.87,7-5.87,2,0,3.18,1.27,3.18,2.64a3.68,3.68,0,0,1-1.86,3,1.08,1.08,0,0,1-1.43-.11,3.46,3.46,0,0,0-2.47-1.37c-1.15,0-3.18,1.7-4.38,4.5v10.3c0,3.62.27,3.9,4.49,4.23Z" transform="translate(-18.29 -7.13)"/><path class="cls-5" d="M455.57,298.88a4,4,0,0,1-2.58-1,5.26,5.26,0,0,1-1.32-2.47c-2.19,1.48-4.88,3.51-6.58,3.51a6.72,6.72,0,0,1-6.68-6.75c0-2.68,1.48-4.44,4.49-5.48,3.35-1.15,7.46-2.57,8.66-3.56V282c0-3.89-2-6.14-4.82-6.14a3.18,3.18,0,0,0-2.58,1.26,12.09,12.09,0,0,0-1.48,3.57,1.52,1.52,0,0,1-1.59,1.26,2.64,2.64,0,0,1-2.41-2.41c0-.77.71-1.43,1.81-2.2a23.1,23.1,0,0,1,7.89-3.84,7.21,7.21,0,0,1,7.41,7.84v10.59c0,2.52.93,3.28,1.91,3.28a4.34,4.34,0,0,0,2-.6l.55,1.54Zm-4-13.87c-1.2.6-3.83,1.75-5.09,2.3-2.09.93-3.35,2-3.35,4a4,4,0,0,0,3.95,4.22,7.24,7.24,0,0,0,4.49-2Z" transform="translate(-18.29 -7.13)"/><path class="cls-5" d="M478.26,298.22v-1.53c3.18-.33,3.51-.72,3.51-4.45v-9c0-3.84-1.37-6.42-5-6.42-2.24,0-4.38,1.32-6.08,2.85v12.83c0,3.79.33,3.9,3.56,4.23v1.53H462.42v-1.53c3.62-.39,3.95-.61,3.95-4.23V281.17c0-3.56-.39-3.73-3.35-4.22v-1.43a31.2,31.2,0,0,0,7.68-2.19v4.33c1.09-.77,2.3-1.59,3.73-2.52a8.37,8.37,0,0,1,4.55-1.65c4.38,0,7.12,3.24,7.12,8.56v10.41c0,3.73.33,3.9,3.51,4.23v1.53Z" transform="translate(-18.29 -7.13)"/><path class="cls-5" d="M519.33,296.85a58.27,58.27,0,0,0-8.5,2v-3.56c-1,.6-2.41,1.37-3.4,2a10,10,0,0,1-4.33,1.59c-4.39,0-10.2-4.39-10.2-12.06s6.69-13.33,14.2-13.33a11,11,0,0,1,3.73.61V266c0-3.51-.38-3.62-4.28-4v-1.42a55.77,55.77,0,0,0,8.61-1.87v33.06c0,2.85.38,3.24,2.41,3.34l1.76.12Zm-8.5-18.42a6.87,6.87,0,0,0-5.76-2.8c-2.63,0-7.29,1.76-7.29,9.65,0,6.64,4.11,10.14,7.62,10.2a9.9,9.9,0,0,0,5.43-2Z" transform="translate(-18.29 -7.13)"/><path class="cls-5" d="M521.9,298.22v-1.53c3.46-.33,3.84-.61,3.84-4.34V281.06c0-3.4-.16-3.62-3.45-4.17v-1.31a35.94,35.94,0,0,0,7.78-2.2v19c0,3.73.39,4,3.95,4.34v1.53ZM527.61,268a3,3,0,0,1-2.91-2.9,3,3,0,0,1,3-3,2.86,2.86,0,0,1,2.8,3A2.91,2.91,0,0,1,527.61,268Z" transform="translate(-18.29 -7.13)"/><path class="cls-5" d="M552.55,298.22v-1.53c3.18-.33,3.51-.72,3.51-4.45v-9c0-3.84-1.37-6.42-5-6.42-2.25,0-4.39,1.32-6.08,2.85v12.83c0,3.79.32,3.9,3.56,4.23v1.53H536.71v-1.53c3.62-.39,3.94-.61,3.94-4.23V281.17c0-3.56-.38-3.73-3.34-4.22v-1.43a31.33,31.33,0,0,0,7.68-2.19v4.33c1.09-.77,2.3-1.59,3.72-2.52a8.4,8.4,0,0,1,4.55-1.65c4.39,0,7.13,3.24,7.13,8.56v10.41c0,3.73.33,3.9,3.51,4.23v1.53Z" transform="translate(-18.29 -7.13)"/><path class="cls-5" d="M574.37,290.22a4,4,0,0,0-1.81,2.74c0,1,.93,2.08,3.4,2.08,2,0,4.33-.05,6.14-.05,3.51,0,8,1.15,8,6.58,0,5.7-6.75,11.07-14,11.07-6.19,0-9.54-3.62-9.65-6.85a4.36,4.36,0,0,1,1.37-3.13,53,53,0,0,1,4.5-4,7,7,0,0,1-4.11-3,4.9,4.9,0,0,1-.66-2.35,11.6,11.6,0,0,0,5-3.79Zm2.63.54c-5.1,0-9.32-3.12-9.32-8.27,0-6.25,5.6-9.16,9.87-9.16a11.18,11.18,0,0,1,5.26,1.37,37.06,37.06,0,0,0,7.35-.82l.33.49a6.89,6.89,0,0,1-2,2.91c-.82,0-2.63-.22-3.4-.28a8.48,8.48,0,0,1,1.59,5C586.65,288,581.72,290.76,577,290.76Zm1.26,8.12c-2.68,0-3.89.33-4.87,1.15a6.32,6.32,0,0,0-2.64,4.5c0,3,3.13,5.26,7.35,5.26,5.21,0,8.17-2.69,8.17-6.2a4.12,4.12,0,0,0-2.41-4A14.83,14.83,0,0,0,578.26,298.88ZM577,275.08c-2.46,0-4.66,2.25-4.66,6.58s2.2,7.35,5.21,7.35c2.41-.11,4.55-2.14,4.55-6.58C582.1,278.16,580.07,275.08,577,275.08Z" transform="translate(-18.29 -7.13)"/></g></svg>