<?xml version="1.0" standalone="no"?>
<!DOCTYPE svg PUBLIC "-//W3C//DTD SVG 20010904//EN"
 "http://www.w3.org/TR/2001/REC-SVG-20010904/DTD/svg10.dtd">
<svg version="1.0" xmlns="http://www.w3.org/2000/svg"
 width="2500.000000pt" height="1500.000000pt" viewBox="0 0 2500.000000 1500.000000"
 preserveAspectRatio="xMidYMid meet">

<g transform="translate(0.000000,1500.000000) scale(0.100000,-0.100000)"
fill="#000000" stroke="none">
<path d="M16535 8579 c-306 -45 -547 -246 -652 -544 l-28 -80 0 -905 0 -905
28 -80 c94 -268 297 -456 567 -528 l85 -22 2705 0 c2609 0 2707 1 2775 19 295
78 513 296 591 591 18 66 19 122 19 925 0 803 -1 859 -19 925 -78 293 -290
506 -586 591 -63 18 -164 19 -2745 20 -1484 1 -2707 -2 -2740 -7z m575 -949
l0 -400 380 0 380 0 0 400 0 400 210 0 210 0 0 -985 0 -985 -210 0 -210 0 0
410 0 410 -380 0 -380 0 0 -410 0 -410 -210 0 -210 0 0 985 0 985 210 0 210 0
0 -400z m3590 141 l0 -259 273 -5 c298 -4 336 -10 456 -69 80 -38 181 -137
234 -228 81 -139 116 -326 97 -514 -32 -314 -185 -518 -455 -607 -68 -23 -81
-24 -532 -27 l-463 -3 0 985 0 986 195 0 195 0 0 -259z m-1668 -763 c3 -482 4
-504 23 -537 11 -19 31 -42 45 -52 35 -26 139 -39 323 -39 l157 0 0 565 0 565
195 0 195 0 0 -726 0 -725 -462 3 c-403 3 -471 6 -523 21 -180 52 -271 140
-323 310 -13 44 -16 133 -19 585 l-4 532 195 0 195 0 3 -502z"/>
<path d="M20707 7193 c-4 -3 -7 -191 -7 -416 l0 -410 193 6 c159 4 204 9 260
27 128 40 185 128 201 310 4 41 3 111 -3 156 -27 213 -110 297 -323 324 -92
11 -311 14 -321 3z"/>
<path d="M11610 7890 l0 -180 205 0 205 0 0 180 0 180 -205 0 -205 0 0 -180z"/>
<path d="M3933 7348 c4 -793 2 -768 73 -911 51 -101 172 -221 274 -271 127
-62 177 -68 613 -73 l387 -5 0 165 0 165 -327 4 c-361 5 -385 8 -477 69 -54
36 -90 85 -114 156 -14 42 -16 134 -20 731 l-3 682 -205 0 -205 0 4 -712z"/>
<path d="M5950 7528 c-87 -12 -203 -52 -271 -94 -76 -46 -167 -145 -206 -225
-118 -238 -105 -636 27 -838 101 -153 250 -241 464 -270 42 -6 221 -11 397
-11 l319 0 0 150 0 150 -297 0 c-317 0 -404 8 -468 43 -49 27 -84 91 -92 171
l-6 56 432 0 431 0 0 150 0 150 -431 0 -432 0 6 56 c11 106 64 176 156 206 23
7 153 13 369 15 l332 5 0 149 0 149 -332 -1 c-183 -1 -362 -6 -398 -11z"/>
<path d="M6950 7391 l0 -150 403 -3 c391 -3 404 -4 459 -26 89 -36 128 -97
128 -199 l0 -43 -299 0 c-310 0 -409 -8 -516 -41 -122 -37 -206 -120 -243
-238 -27 -87 -23 -287 7 -363 28 -71 93 -145 160 -181 98 -54 136 -57 739 -57
l552 0 0 483 c-1 535 -6 593 -60 704 -57 116 -162 196 -315 240 -52 15 -123
17 -537 21 l-478 3 0 -150z m990 -862 l0 -150 -297 3 c-258 3 -302 5 -329 20
-42 23 -57 64 -52 138 3 49 10 66 30 87 45 44 99 52 386 52 l262 1 0 -151z"/>
<path d="M8660 6816 l0 -726 195 0 195 0 0 586 0 586 120 -3 c115 -4 121 -5
147 -32 27 -27 28 -30 31 -162 l4 -135 184 0 184 0 0 133 c-1 239 -30 348
-111 406 -85 62 -103 64 -546 69 l-403 3 0 -725z"/>
<path d="M9960 6816 l0 -726 195 0 195 0 0 566 0 566 213 -4 c188 -3 216 -5
251 -23 53 -27 74 -59 86 -130 5 -33 10 -266 10 -517 l0 -458 190 0 190 0 0
513 c0 542 -3 585 -49 690 -27 62 -103 143 -164 174 -27 13 -83 34 -125 46
-72 19 -105 21 -534 25 l-458 3 0 -725z"/>
<path d="M11610 6815 l0 -725 205 0 205 0 0 725 0 725 -205 0 -205 0 0 -725z"/>
<path d="M12340 6816 l0 -726 195 0 195 0 0 566 0 566 213 -4 c188 -3 216 -5
251 -23 53 -27 74 -59 86 -130 5 -33 10 -266 10 -517 l0 -458 190 0 190 0 0
513 c0 542 -3 585 -49 690 -27 62 -103 143 -164 174 -27 13 -83 34 -125 46
-72 19 -105 21 -534 25 l-458 3 0 -725z"/>
<path d="M14445 7525 c-194 -31 -330 -119 -430 -279 -85 -137 -121 -291 -112
-480 10 -219 70 -369 202 -502 84 -86 159 -130 260 -154 29 -7 167 -14 328
-17 l277 -5 0 -27 c0 -47 -20 -101 -51 -136 -54 -61 -85 -65 -496 -65 l-363 0
0 -146 0 -145 453 3 c497 4 494 4 620 70 99 53 166 149 202 293 17 64 19 141
22 838 l4 767 -418 -1 c-285 -1 -443 -5 -498 -14z m525 -715 l0 -420 -147 0
c-314 1 -448 61 -499 223 -9 29 -18 100 -21 160 -9 179 23 284 112 366 83 76
133 88 383 90 l172 1 0 -420z"/>
</g>
</svg>
