<?xml version="1.0" encoding="UTF-8" standalone="no"?>
<!-- Created with Inkscape (http://www.inkscape.org/) -->

<svg
   xmlns:dc="http://purl.org/dc/elements/1.1/"
   xmlns:cc="http://creativecommons.org/ns#"
   xmlns:rdf="http://www.w3.org/1999/02/22-rdf-syntax-ns#"
   xmlns:svg="http://www.w3.org/2000/svg"
   xmlns="http://www.w3.org/2000/svg"
   xmlns:sodipodi="http://sodipodi.sourceforge.net/DTD/sodipodi-0.dtd"
   xmlns:inkscape="http://www.inkscape.org/namespaces/inkscape"
   version="1.1"
   id="svg1226"
   xml:space="preserve"
   width="816"
   height="538.78668"
   viewBox="0 0 816 538.78668"
   sodipodi:docname="skillgenisis-recolored.svg"
   inkscape:version="0.92.3 (2405546, 2018-03-11)"><metadata
     id="metadata1232"><rdf:RDF><cc:Work
         rdf:about=""><dc:format>image/svg+xml</dc:format><dc:type
           rdf:resource="http://purl.org/dc/dcmitype/StillImage" /><dc:title></dc:title></cc:Work></rdf:RDF></metadata><defs
     id="defs1230"><clipPath
       clipPathUnits="userSpaceOnUse"
       id="clipPath1244"><path
         d="M 0,404.09 H 612 V 0 H 0 Z"
         id="path1242"
         inkscape:connector-curvature="0" /></clipPath><clipPath
       clipPathUnits="userSpaceOnUse"
       id="clipPath1834"><path
         d="M 0,1500 H 1500 V 0 H 0 Z"
         id="path1832"
         inkscape:connector-curvature="0" /></clipPath><clipPath
       clipPathUnits="userSpaceOnUse"
       id="clipPath1842"><path
         d="m 131.653,921.359 h 195.866 v -84.93 H 131.653 Z"
         id="path1840"
         inkscape:connector-curvature="0" /></clipPath><clipPath
       clipPathUnits="userSpaceOnUse"
       id="clipPath1814"><path
         d="m 131.653,836.429 c -0.026,-0.076 -0.077,-0.154 -0.129,-0.232 v 0 c -2.399,-4.643 -4.309,-9.932 -5.65,-15.892 v 0 c 0,0 24.07,18.937 107.916,27.089 v 0 c 53.715,5.237 77.062,34.133 86.918,54.203 v 0 c 0.128,0.284 0.258,0.542 0.387,0.775 v 0 c 5.211,10.888 6.424,18.988 6.424,18.988 v 0 C 281.622,852.502 163.515,897.599 131.653,836.429"
         id="path1812"
         inkscape:connector-curvature="0" /></clipPath><linearGradient
       x1="0"
       y1="0"
       x2="1"
       y2="0"
       gradientUnits="userSpaceOnUse"
       gradientTransform="matrix(194.69096,113.03235,113.03235,-194.69096,154.62257,823.46246)"
       spreadMethod="pad"
       id="linearGradient1824"><stop
         style="stop-opacity:1;stop-color:#2e3192"
         offset="0"
         id="stop1820" /><stop
         style="stop-opacity:1;stop-color:#00aeef"
         offset="1"
         id="stop1822" /></linearGradient><clipPath
       clipPathUnits="userSpaceOnUse"
       id="clipPath1790"><path
         d="M 0,1500 H 1500 V 0 H 0 Z"
         id="path1788"
         inkscape:connector-curvature="0" /></clipPath><clipPath
       clipPathUnits="userSpaceOnUse"
       id="clipPath1798"><path
         d="M 146.559,745.876 H 333.865 V 623.305 H 146.559 Z"
         id="path1796"
         inkscape:connector-curvature="0" /></clipPath><clipPath
       clipPathUnits="userSpaceOnUse"
       id="clipPath1770"><path
         d="M 333.865,745.694 C 310.852,687.235 147.777,700.418 146.565,623.305 v 0 c -0.155,-9.856 2.347,-21.181 8.101,-34.312 v 0 c 0,0 -1.419,62.407 84.284,74.815 v 0 c 95.017,13.752 95.017,82.118 95.017,82.118 v 0 c -0.024,-0.076 -0.05,-0.154 -0.102,-0.232"
         id="path1768"
         inkscape:connector-curvature="0" /></clipPath><linearGradient
       x1="0"
       y1="0"
       x2="1"
       y2="0"
       gradientUnits="userSpaceOnUse"
       gradientTransform="matrix(205.74593,172.85254,172.85254,-205.74593,165.03966,616.80469)"
       spreadMethod="pad"
       id="linearGradient1780"><stop
         style="stop-opacity:1;stop-color:#2e3192"
         offset="0"
         id="stop1776" /><stop
         style="stop-opacity:1;stop-color:#00aeef"
         offset="1"
         id="stop1778" /></linearGradient><clipPath
       clipPathUnits="userSpaceOnUse"
       id="clipPath1746"><path
         d="M 0,1500 H 1500 V 0 H 0 Z"
         id="path1744"
         inkscape:connector-curvature="0" /></clipPath><clipPath
       clipPathUnits="userSpaceOnUse"
       id="clipPath1754"><path
         d="M 110.358,873.941 H 437.113 V 670.852 H 110.358 Z"
         id="path1752"
         inkscape:connector-curvature="0" /></clipPath><clipPath
       clipPathUnits="userSpaceOnUse"
       id="clipPath1726"><path
         d="M 437.061,873.633 C 385.05,788.057 112.227,805.317 110.369,670.853 v 0 c -0.078,-4.85 0.207,-9.934 0.876,-15.222 v 0 c 10.965,144.474 301.85,28.38 326.358,218.852 v 0 c -0.181,-0.284 -0.336,-0.568 -0.542,-0.85"
         id="path1724"
         inkscape:connector-curvature="0" /></clipPath><linearGradient
       x1="0"
       y1="0"
       x2="1"
       y2="0"
       gradientUnits="userSpaceOnUse"
       gradientTransform="matrix(287.01352,227.67584,227.67584,-287.01352,134.72752,658.65552)"
       spreadMethod="pad"
       id="linearGradient1736"><stop
         style="stop-opacity:1;stop-color:#2e3192"
         offset="0"
         id="stop1732" /><stop
         style="stop-opacity:1;stop-color:#00aeef"
         offset="1"
         id="stop1734" /></linearGradient><clipPath
       clipPathUnits="userSpaceOnUse"
       id="clipPath1706"><path
         d="m 333.865,745.876 c -0.31,-0.232 -0.619,-0.464 -0.928,-0.672 v 0 C 300.198,722.966 227.78,734.989 175.744,706.584 v 0 c -52.295,-28.56 -53.843,-73.528 -21.078,-117.591 v 0 c 0,0 -1.419,62.407 84.284,74.815 v 0 c 95.017,13.752 95.017,82.118 95.017,82.118 v 0 c -0.024,-0.025 -0.076,-0.05 -0.102,-0.05"
         id="path1704"
         inkscape:connector-curvature="0" /></clipPath><linearGradient
       x1="0"
       y1="0"
       x2="1"
       y2="0"
       gradientUnits="userSpaceOnUse"
       gradientTransform="matrix(-33.166229,92.86557,92.86557,33.166229,254.93941,629.1286)"
       spreadMethod="pad"
       id="linearGradient1716"><stop
         style="stop-opacity:1;stop-color:#2e3192"
         offset="0"
         id="stop1712" /><stop
         style="stop-opacity:1;stop-color:#00aeef"
         offset="1"
         id="stop1714" /></linearGradient><clipPath
       clipPathUnits="userSpaceOnUse"
       id="clipPath1686"><path
         d="m 326.848,921.076 c -31.32,-13.313 -102.371,-2.063 -162.275,-23.375 v 0 C 112.536,879.23 125.874,820.305 125.874,820.305 v 0 c 0,0 24.07,18.937 107.916,27.089 v 0 c 54.411,5.315 77.681,34.88 87.305,54.978 v 0 c 5.211,10.888 6.424,18.988 6.424,18.988 v 0 c -0.233,-0.104 -0.439,-0.206 -0.671,-0.284"
         id="path1684"
         inkscape:connector-curvature="0" /></clipPath><linearGradient
       x1="0"
       y1="0"
       x2="1"
       y2="0"
       gradientUnits="userSpaceOnUse"
       gradientTransform="matrix(-23.646522,66.210365,66.210365,23.646522,235.40779,846.44061)"
       spreadMethod="pad"
       id="linearGradient1696"><stop
         style="stop-opacity:1;stop-color:#2e3192"
         offset="0"
         id="stop1692" /><stop
         style="stop-opacity:1;stop-color:#00aeef"
         offset="1"
         id="stop1694" /></linearGradient><clipPath
       clipPathUnits="userSpaceOnUse"
       id="clipPath1666"><path
         d="m 437.113,873.94 c -1.859,-2.141 -3.948,-4.101 -6.218,-5.959 v 0 C 382.289,828.458 245.323,847.704 148.654,808.489 v 0 C 41.589,765.069 111.245,655.631 111.245,655.631 v 0 c 10.965,144.474 301.85,28.38 326.358,218.852 v 0 c -0.155,-0.181 -0.31,-0.361 -0.49,-0.543"
         id="path1664"
         inkscape:connector-curvature="0" /></clipPath><linearGradient
       x1="0"
       y1="0"
       x2="1"
       y2="0"
       gradientUnits="userSpaceOnUse"
       gradientTransform="matrix(-41.487347,116.16473,116.16473,41.487347,287.41034,723.9552)"
       spreadMethod="pad"
       id="linearGradient1676"><stop
         style="stop-opacity:1;stop-color:#2e3192"
         offset="0"
         id="stop1672" /><stop
         style="stop-opacity:1;stop-color:#00aeef"
         offset="1"
         id="stop1674" /></linearGradient><clipPath
       clipPathUnits="userSpaceOnUse"
       id="clipPath1646"><path
         d="m 73.048,775.57 c 0,-15.628 2.031,-30.784 5.856,-45.229 v 0 c 0.522,7.292 1.933,14.641 4.551,21.819 v 0 c -1.068,7.651 -1.622,15.465 -1.622,23.41 v 0 c 0,92.849 75.555,168.398 168.405,168.398 v 0 c 23.205,0 45.344,-4.723 65.483,-13.256 v 0 c 2.128,-0.897 4.224,-1.843 6.305,-2.83 v 0 c 0.204,-0.089 0.399,-0.187 0.595,-0.277 v 0 c 1.012,-0.481 2.007,-0.97 3.002,-1.476 v 0 c 28.01,-14.079 51.575,-35.752 67.979,-62.294 v 0 c 2.993,0.816 5.905,1.673 8.712,2.594 v 0 c -30.996,51.674 -87.564,86.332 -152.076,86.332 v 0 c -97.711,0 -177.19,-79.48 -177.19,-177.191 m 343.572,26.135 c 1.33,-8.516 2.023,-17.243 2.023,-26.135 v 0 c 0,-92.857 -75.556,-168.405 -168.405,-168.405 v 0 c -26.306,0 -51.225,6.068 -73.436,16.885 v 0 c -0.571,0.277 -1.134,0.554 -1.696,0.84 v 0 c -1.95,-2.414 -3.646,-4.838 -5.139,-7.243 v 0 c 0.383,-0.205 0.767,-0.4 1.158,-0.596 v 0 c 23.818,-11.949 50.694,-18.671 79.113,-18.671 v 0 c 97.694,0 177.19,79.496 177.19,177.19 v 0 c 0,12.52 -1.305,24.732 -3.785,36.518 v 0 c -2.178,-3.654 -4.518,-7.113 -7.023,-10.383"
         id="path1644"
         inkscape:connector-curvature="0" /></clipPath><linearGradient
       x1="0"
       y1="0"
       x2="1"
       y2="0"
       gradientUnits="userSpaceOnUse"
       gradientTransform="matrix(354.38062,0,0,-354.38062,73.047455,775.57031)"
       spreadMethod="pad"
       id="linearGradient1656"><stop
         style="stop-opacity:1;stop-color:#2e3192"
         offset="0"
         id="stop1652" /><stop
         style="stop-opacity:1;stop-color:#00aeef"
         offset="1"
         id="stop1654" /></linearGradient><clipPath
       clipPathUnits="userSpaceOnUse"
       id="clipPath1624"><path
         d="M 0,1500 H 1500 V 0 H 0 Z"
         id="path1622"
         inkscape:connector-curvature="0" /></clipPath><clipPath
       clipPathUnits="userSpaceOnUse"
       id="clipPath1604"><path
         d="m 1376.735,808.919 c -5.181,0 -9.604,-0.71 -13.268,-2.126 v 0 c -3.665,-1.417 -6.671,-3.372 -9.017,-5.864 v 0 c -2.346,-2.492 -4.058,-5.377 -5.131,-8.65 v 0 c -1.077,-3.276 -1.613,-6.77 -1.613,-10.483 v 0 c 0,-3.129 0.513,-6.282 1.539,-9.457 v 0 c 1.027,-3.177 2.687,-6.037 4.985,-8.576 v 0 c 2.295,-2.544 5.278,-4.619 8.944,-6.232 v 0 c 3.665,-1.613 8.185,-2.419 13.561,-2.419 v 0 h 25.95 c 2.834,0 5.206,-1.1 7.112,-3.299 v 0 c 1.906,-2.199 2.858,-4.765 2.858,-7.697 v 0 c 0,-3.13 -0.952,-5.769 -2.858,-7.917 v 0 c -1.906,-2.151 -4.278,-3.225 -7.112,-3.225 v 0 h -50.287 v -16.129 h 47.209 c 9.185,0 16.347,2.296 21.479,6.891 v 0 c 5.131,4.594 7.697,11.485 7.697,20.673 v 0 c 0,8.797 -2.591,15.468 -7.77,20.013 v 0 c -5.182,4.545 -12.221,6.817 -21.112,6.817 v 0 h -25.511 c -3.031,0 -5.549,1.049 -7.551,3.152 v 0 c -2.005,2.101 -3.006,4.667 -3.006,7.698 v 0 c 0,2.833 1.026,5.326 3.079,7.477 v 0 c 2.053,2.149 4.495,3.226 7.331,3.226 v 0 h 48.382 v 16.127 z"
         id="path1602"
         inkscape:connector-curvature="0" /></clipPath><linearGradient
       x1="0"
       y1="0"
       x2="1"
       y2="0"
       gradientUnits="userSpaceOnUse"
       gradientTransform="matrix(913.0213,-9.1914902,-9.1914902,-913.0213,492.79318,771.88977)"
       spreadMethod="pad"
       id="linearGradient1614"><stop
         style="stop-opacity:1;stop-color:#2e3192"
         offset="0"
         id="stop1610" /><stop
         style="stop-opacity:1;stop-color:#00aeef"
         offset="1"
         id="stop1612" /></linearGradient><clipPath
       clipPathUnits="userSpaceOnUse"
       id="clipPath1584"><path
         d="m 1319.85,716.845 h 16.127 v 92.074 h -16.127 z"
         id="path1582"
         inkscape:connector-curvature="0" /></clipPath><linearGradient
       x1="0"
       y1="0"
       x2="1"
       y2="0"
       gradientUnits="userSpaceOnUse"
       gradientTransform="matrix(913.0213,-9.1914902,-9.1914902,-913.0213,492.78714,771.28986)"
       spreadMethod="pad"
       id="linearGradient1594"><stop
         style="stop-opacity:1;stop-color:#2e3192"
         offset="0"
         id="stop1590" /><stop
         style="stop-opacity:1;stop-color:#00aeef"
         offset="1"
         id="stop1592" /></linearGradient><clipPath
       clipPathUnits="userSpaceOnUse"
       id="clipPath1564"><path
         d="m 1255.927,808.919 c -5.182,0 -9.603,-0.71 -13.269,-2.126 v 0 c -3.665,-1.417 -6.671,-3.372 -9.016,-5.864 v 0 c -2.346,-2.492 -4.058,-5.377 -5.132,-8.65 v 0 c -1.077,-3.276 -1.613,-6.77 -1.613,-10.483 v 0 c 0,-3.129 0.513,-6.282 1.539,-9.457 v 0 c 1.027,-3.177 2.688,-6.037 4.986,-8.576 v 0 c 2.295,-2.544 5.277,-4.619 8.943,-6.232 v 0 c 3.665,-1.613 8.185,-2.419 13.562,-2.419 v 0 h 25.95 c 2.834,0 5.205,-1.1 7.111,-3.299 v 0 c 1.906,-2.199 2.858,-4.765 2.858,-7.697 v 0 c 0,-3.13 -0.952,-5.769 -2.858,-7.917 v 0 c -1.906,-2.151 -4.277,-3.225 -7.111,-3.225 v 0 h -50.288 v -16.129 h 47.21 c 9.186,0 16.347,2.296 21.479,6.891 v 0 c 5.131,4.594 7.696,11.485 7.696,20.673 v 0 c 0,8.797 -2.591,15.468 -7.77,20.013 v 0 c -5.181,4.545 -12.219,6.817 -21.112,6.817 v 0 h -25.511 c -3.031,0 -5.549,1.049 -7.551,3.152 v 0 c -2.005,2.101 -3.006,4.667 -3.006,7.698 v 0 c 0,2.833 1.027,5.326 3.079,7.477 v 0 c 2.053,2.149 4.496,3.226 7.331,3.226 v 0 h 48.383 v 16.127 z"
         id="path1562"
         inkscape:connector-curvature="0" /></clipPath><linearGradient
       x1="0"
       y1="0"
       x2="1"
       y2="0"
       gradientUnits="userSpaceOnUse"
       gradientTransform="matrix(913.0213,-9.1914902,-9.1914902,-913.0213,492.78094,770.67371)"
       spreadMethod="pad"
       id="linearGradient1574"><stop
         style="stop-opacity:1;stop-color:#2e3192"
         offset="0"
         id="stop1570" /><stop
         style="stop-opacity:1;stop-color:#00aeef"
         offset="1"
         id="stop1572" /></linearGradient><clipPath
       clipPathUnits="userSpaceOnUse"
       id="clipPath1544"><path
         d="m 1173.53,808.919 c -5.278,0 -9.75,-0.685 -13.415,-2.052 v 0 c -3.665,-1.371 -6.648,-3.276 -8.943,-5.719 v 0 c -2.298,-2.443 -3.984,-5.328 -5.059,-8.649 v 0 c -1.076,-3.325 -1.612,-6.892 -1.612,-10.703 v 0 c 0,-3.226 0.756,-6.598 2.273,-10.117 v 0 c 1.513,-3.518 4.079,-6.354 7.696,-8.503 v 0 c -3.519,-2.151 -6.061,-4.962 -7.623,-8.431 v 0 c -1.565,-3.47 -2.346,-7.014 -2.346,-10.629 v 0 c 0,-3.422 0.512,-6.744 1.539,-9.97 v 0 c 1.026,-3.225 2.688,-6.134 4.985,-8.724 v 0 c 2.295,-2.59 5.278,-4.668 8.944,-6.23 v 0 c 3.664,-1.565 8.184,-2.347 13.561,-2.347 v 0 h 45.89 v 16.129 h -48.236 c -3.129,0 -5.67,1.048 -7.624,3.151 v 0 c -1.955,2.102 -2.932,4.861 -2.932,8.284 v 0 c 0,2.833 1.026,5.326 3.079,7.477 v 0 c 2.053,2.149 4.495,3.226 7.331,3.226 v 0 h 48.382 v 16.127 h -48.236 c -3.129,0 -5.67,1.049 -7.624,3.152 v 0 c -1.955,2.101 -2.932,4.667 -2.932,7.698 v 0 c 0,2.833 1.026,5.326 3.079,7.477 v 0 c 2.053,2.149 4.495,3.226 7.331,3.226 v 0 h 48.382 v 16.127 z"
         id="path1542"
         inkscape:connector-curvature="0" /></clipPath><linearGradient
       x1="0"
       y1="0"
       x2="1"
       y2="0"
       gradientUnits="userSpaceOnUse"
       gradientTransform="matrix(913.0213,-9.1914902,-9.1914902,-913.0213,492.77383,769.96539)"
       spreadMethod="pad"
       id="linearGradient1554"><stop
         style="stop-opacity:1;stop-color:#2e3192"
         offset="0"
         id="stop1550" /><stop
         style="stop-opacity:1;stop-color:#00aeef"
         offset="1"
         id="stop1552" /></linearGradient><clipPath
       clipPathUnits="userSpaceOnUse"
       id="clipPath1524"><path
         d="m 1054.701,807.6 c -2.884,-1.077 -5.401,-2.591 -7.551,-4.545 v 0 c -2.151,-1.957 -3.837,-4.326 -5.057,-7.111 v 0 c -1.224,-2.786 -1.833,-5.89 -1.833,-9.31 v 0 -69.789 h 17.154 v 68.03 c 0,5.374 2.295,8.064 6.891,8.064 v 0 c 1.465,0 2.613,-0.491 3.445,-1.467 v 0 c 0.829,-0.978 1.539,-2.396 2.126,-4.252 v 0 l 18.473,-56.593 c 1.466,-4.496 4.105,-8.016 7.918,-10.556 v 0 c 3.811,-2.542 8.063,-3.812 12.754,-3.812 v 0 c 3.322,0 6.426,0.539 9.311,1.613 v 0 c 2.882,1.074 5.399,2.589 7.55,4.545 v 0 c 2.149,1.954 3.835,4.325 5.058,7.11 v 0 c 1.221,2.787 1.833,5.888 1.833,9.311 v 0 70.081 h -17.154 v -68.322 c 0,-5.376 -2.297,-8.064 -6.89,-8.064 v 0 c -1.466,0 -2.616,0.488 -3.446,1.467 v 0 c -0.832,0.976 -1.54,2.393 -2.126,4.251 v 0 l -18.473,56.593 c -1.467,4.495 -4.106,8.014 -7.918,10.556 v 0 c -3.811,2.541 -8.063,3.812 -12.755,3.812 v 0 c -3.323,0 -6.428,-0.538 -9.31,-1.612"
         id="path1522"
         inkscape:connector-curvature="0" /></clipPath><linearGradient
       x1="0"
       y1="0"
       x2="1"
       y2="0"
       gradientUnits="userSpaceOnUse"
       gradientTransform="matrix(913.0213,-9.1914902,-9.1914902,-913.0213,492.7627,768.85999)"
       spreadMethod="pad"
       id="linearGradient1534"><stop
         style="stop-opacity:1;stop-color:#2e3192"
         offset="0"
         id="stop1530" /><stop
         style="stop-opacity:1;stop-color:#00aeef"
         offset="1"
         id="stop1532" /></linearGradient><clipPath
       clipPathUnits="userSpaceOnUse"
       id="clipPath1504"><path
         d="m 981.175,808.919 c -5.278,0 -9.749,-0.685 -13.414,-2.052 v 0 c -3.667,-1.371 -6.648,-3.276 -8.943,-5.719 v 0 c -2.299,-2.443 -3.985,-5.328 -5.059,-8.649 v 0 c -1.077,-3.325 -1.612,-6.892 -1.612,-10.703 v 0 c 0,-3.226 0.755,-6.598 2.272,-10.117 v 0 c 1.513,-3.518 4.08,-6.354 7.697,-8.503 v 0 c -3.52,-2.151 -6.061,-4.962 -7.624,-8.431 v 0 c -1.564,-3.47 -2.345,-7.014 -2.345,-10.629 v 0 c 0,-3.422 0.512,-6.744 1.539,-9.97 v 0 c 1.026,-3.225 2.687,-6.134 4.985,-8.724 v 0 c 2.295,-2.59 5.278,-4.668 8.943,-6.23 v 0 c 3.665,-1.565 8.185,-2.347 13.561,-2.347 v 0 h 45.891 v 16.129 H 978.83 c -3.13,0 -5.67,1.048 -7.624,3.151 v 0 c -1.956,2.102 -2.933,4.861 -2.933,8.284 v 0 c 0,2.833 1.027,5.326 3.08,7.477 v 0 c 2.052,2.149 4.494,3.226 7.33,3.226 v 0 h 48.383 v 16.127 H 978.83 c -3.13,0 -5.67,1.049 -7.624,3.152 v 0 c -1.956,2.101 -2.933,4.667 -2.933,7.698 v 0 c 0,2.833 1.027,5.326 3.08,7.477 v 0 c 2.052,2.149 4.494,3.226 7.33,3.226 v 0 h 48.383 v 16.127 z"
         id="path1502"
         inkscape:connector-curvature="0" /></clipPath><linearGradient
       x1="0"
       y1="0"
       x2="1"
       y2="0"
       gradientUnits="userSpaceOnUse"
       gradientTransform="matrix(913.0213,-9.1914902,-9.1914902,-913.0213,492.75433,768.02917)"
       spreadMethod="pad"
       id="linearGradient1514"><stop
         style="stop-opacity:1;stop-color:#2e3192"
         offset="0"
         id="stop1510" /><stop
         style="stop-opacity:1;stop-color:#00aeef"
         offset="1"
         id="stop1512" /></linearGradient><clipPath
       clipPathUnits="userSpaceOnUse"
       id="clipPath1484"><path
         d="m 900.539,808.919 c -27.662,0 -41.638,-15.248 -41.932,-45.743 v 0 -0.44 c 0,-30.594 13.928,-45.891 41.785,-45.891 v 0 h 15.834 c 3.42,0 6.672,0.757 9.751,2.273 v 0 c 3.079,1.515 5.79,3.519 8.137,6.011 v 0 c 2.345,2.493 4.201,5.327 5.571,8.504 v 0 c 1.368,3.175 2.052,6.425 2.052,9.75 v 0 c 0,4.104 -0.66,7.843 -1.979,11.216 v 0 c -1.32,3.372 -3.104,6.304 -5.352,8.796 v 0 c -2.249,2.493 -4.936,4.422 -8.063,5.792 v 0 c -3.129,1.368 -6.451,2.052 -9.97,2.052 v 0 h -15.395 v -16.127 h 14.661 c 2.834,0 5.206,-1.1 7.112,-3.299 v 0 c 1.906,-2.199 2.858,-4.765 2.858,-7.697 v 0 c 0,-2.933 -0.977,-5.523 -2.932,-7.77 v 0 c -1.956,-2.25 -4.302,-3.372 -7.038,-3.372 v 0 h -19.352 c -14.368,0 -21.553,9.871 -21.553,29.615 v 0 c 0,10.359 1.782,17.983 5.352,22.872 v 0 c 3.567,4.887 9.017,7.331 16.347,7.331 v 0 h 37.681 v 16.127 z"
         id="path1482"
         inkscape:connector-curvature="0" /></clipPath><linearGradient
       x1="0"
       y1="0"
       x2="1"
       y2="0"
       gradientUnits="userSpaceOnUse"
       gradientTransform="matrix(913.0213,-9.1914902,-9.1914902,-913.0213,492.74551,767.15424)"
       spreadMethod="pad"
       id="linearGradient1494"><stop
         style="stop-opacity:1;stop-color:#2e3192"
         offset="0"
         id="stop1490" /><stop
         style="stop-opacity:1;stop-color:#00aeef"
         offset="1"
         id="stop1492" /></linearGradient><clipPath
       clipPathUnits="userSpaceOnUse"
       id="clipPath1464"><path
         d="m 780.023,808.919 v -52.195 c 0,-6.157 0.854,-11.68 2.565,-16.567 v 0 c 1.709,-4.889 4.251,-9.067 7.624,-12.535 v 0 c 3.372,-3.47 7.598,-6.134 12.682,-7.99 v 0 c 5.082,-1.859 10.997,-2.787 17.74,-2.787 v 0 h 27.564 v 16.129 h -28.004 c -7.624,0 -13.538,2.075 -17.74,6.23 v 0 c -4.203,4.154 -6.303,9.945 -6.303,17.374 v 0 52.341 z"
         id="path1462"
         inkscape:connector-curvature="0" /></clipPath><linearGradient
       x1="0"
       y1="0"
       x2="1"
       y2="0"
       gradientUnits="userSpaceOnUse"
       gradientTransform="matrix(913.0213,-9.1914902,-9.1914902,-913.0213,492.7345,766.05847)"
       spreadMethod="pad"
       id="linearGradient1474"><stop
         style="stop-opacity:1;stop-color:#2e3192"
         offset="0"
         id="stop1470" /><stop
         style="stop-opacity:1;stop-color:#00aeef"
         offset="1"
         id="stop1472" /></linearGradient><clipPath
       clipPathUnits="userSpaceOnUse"
       id="clipPath1444"><path
         d="m 700.118,808.919 v -52.195 c 0,-6.157 0.854,-11.68 2.566,-16.567 v 0 c 1.709,-4.889 4.252,-9.067 7.624,-12.535 v 0 c 3.371,-3.47 7.599,-6.134 12.682,-7.99 v 0 c 5.081,-1.859 10.996,-2.787 17.74,-2.787 v 0 h 27.564 v 16.129 H 740.29 c -7.623,0 -13.538,2.075 -17.739,6.23 v 0 c -4.205,4.154 -6.306,9.945 -6.306,17.374 v 0 52.341 z"
         id="path1442"
         inkscape:connector-curvature="0" /></clipPath><linearGradient
       x1="0"
       y1="0"
       x2="1"
       y2="0"
       gradientUnits="userSpaceOnUse"
       gradientTransform="matrix(913.0213,-9.1914902,-9.1914902,-913.0213,492.72638,765.25415)"
       spreadMethod="pad"
       id="linearGradient1454"><stop
         style="stop-opacity:1;stop-color:#2e3192"
         offset="0"
         id="stop1450" /><stop
         style="stop-opacity:1;stop-color:#00aeef"
         offset="1"
         id="stop1452" /></linearGradient><clipPath
       clipPathUnits="userSpaceOnUse"
       id="clipPath1424"><path
         d="m 670.796,716.845 h 16.127 v 92.074 h -16.127 z"
         id="path1422"
         inkscape:connector-curvature="0" /></clipPath><linearGradient
       x1="0"
       y1="0"
       x2="1"
       y2="0"
       gradientUnits="userSpaceOnUse"
       gradientTransform="matrix(913.0213,-9.1914902,-9.1914902,-913.0213,492.72137,764.75647)"
       spreadMethod="pad"
       id="linearGradient1434"><stop
         style="stop-opacity:1;stop-color:#2e3192"
         offset="0"
         id="stop1430" /><stop
         style="stop-opacity:1;stop-color:#00aeef"
         offset="1"
         id="stop1432" /></linearGradient><clipPath
       clipPathUnits="userSpaceOnUse"
       id="clipPath1404"><path
         d="m 596.61,779.597 v 29.322 h -16.128 v -92.074 h 16.128 v 29.47 l 60.991,-30.349 v 17.887 l -61.431,29.029 61.431,28.444 v 18.472 z"
         id="path1402"
         inkscape:connector-curvature="0" /></clipPath><linearGradient
       x1="0"
       y1="0"
       x2="1"
       y2="0"
       gradientUnits="userSpaceOnUse"
       gradientTransform="matrix(913.0213,-9.1914902,-9.1914902,-913.0213,492.71924,764.54224)"
       spreadMethod="pad"
       id="linearGradient1414"><stop
         style="stop-opacity:1;stop-color:#2e3192"
         offset="0"
         id="stop1410" /><stop
         style="stop-opacity:1;stop-color:#00aeef"
         offset="1"
         id="stop1412" /></linearGradient><clipPath
       clipPathUnits="userSpaceOnUse"
       id="clipPath1384"><path
         d="m 519.052,808.919 c -5.183,0 -9.603,-0.71 -13.269,-2.126 v 0 c -3.665,-1.417 -6.671,-3.372 -9.016,-5.864 v 0 c -2.347,-2.492 -4.057,-5.377 -5.132,-8.65 v 0 c -1.076,-3.276 -1.613,-6.77 -1.613,-10.483 v 0 c 0,-3.129 0.513,-6.282 1.539,-9.457 v 0 c 1.027,-3.177 2.688,-6.037 4.985,-8.576 v 0 c 2.296,-2.544 5.279,-4.619 8.944,-6.232 v 0 c 3.665,-1.613 8.185,-2.419 13.562,-2.419 v 0 h 25.95 c 2.834,0 5.205,-1.1 7.111,-3.299 v 0 c 1.906,-2.199 2.859,-4.765 2.859,-7.697 v 0 c 0,-3.13 -0.953,-5.769 -2.859,-7.917 v 0 c -1.906,-2.151 -4.277,-3.225 -7.111,-3.225 v 0 h -50.288 v -16.129 h 47.209 c 9.187,0 16.348,2.273 21.48,6.818 v 0 c 5.131,4.545 7.696,11.264 7.696,20.159 v 0 0.587 c 0,8.797 -2.591,15.468 -7.77,20.013 v 0 c -5.181,4.545 -12.219,6.817 -21.112,6.817 v 0 h -25.511 c -3.031,0 -5.549,1.049 -7.551,3.152 v 0 c -2.004,2.101 -3.006,4.667 -3.006,7.698 v 0 c 0,2.833 1.027,5.326 3.079,7.477 v 0 c 2.053,2.149 4.495,3.226 7.332,3.226 v 0 h 48.382 v 16.127 z"
         id="path1382"
         inkscape:connector-curvature="0" /></clipPath><linearGradient
       x1="0"
       y1="0"
       x2="1"
       y2="0"
       gradientUnits="userSpaceOnUse"
       gradientTransform="matrix(913.0213,-9.1914902,-9.1914902,-913.0213,492.70627,763.25629)"
       spreadMethod="pad"
       id="linearGradient1394"><stop
         style="stop-opacity:1;stop-color:#2e3192"
         offset="0"
         id="stop1390" /><stop
         style="stop-opacity:1;stop-color:#00aeef"
         offset="1"
         id="stop1392" /></linearGradient></defs><sodipodi:namedview
     pagecolor="#ffffff"
     bordercolor="#666666"
     borderopacity="1"
     objecttolerance="10"
     gridtolerance="10"
     guidetolerance="10"
     inkscape:pageopacity="0"
     inkscape:pageshadow="2"
     inkscape:window-width="1366"
     inkscape:window-height="703"
     id="namedview1228"
     showgrid="false"
     inkscape:zoom="1.0294643"
     inkscape:cx="433.87414"
     inkscape:cy="316.54356"
     inkscape:window-x="0"
     inkscape:window-y="0"
     inkscape:window-maximized="1"
     inkscape:current-layer="g1234" /><g
     id="g1234"
     inkscape:groupmode="layer"
     inkscape:label="Tutocademy"
     transform="matrix(1.3333333,0,0,-1.3333333,0,538.78667)"><g
       transform="matrix(0.64349486,0,0,0.68669776,-310.05206,-427.19853)"
       id="g1378"><g
         id="g1380"
         clip-path="url(#clipPath1384)"><g
           id="g1386"><g
             id="g1388"><path
               d="m 519.052,808.919 c -5.183,0 -9.603,-0.71 -13.269,-2.126 v 0 c -3.665,-1.417 -6.671,-3.372 -9.016,-5.864 v 0 c -2.347,-2.492 -4.057,-5.377 -5.132,-8.65 v 0 c -1.076,-3.276 -1.613,-6.77 -1.613,-10.483 v 0 c 0,-3.129 0.513,-6.282 1.539,-9.457 v 0 c 1.027,-3.177 2.688,-6.037 4.985,-8.576 v 0 c 2.296,-2.544 5.279,-4.619 8.944,-6.232 v 0 c 3.665,-1.613 8.185,-2.419 13.562,-2.419 v 0 h 25.95 c 2.834,0 5.205,-1.1 7.111,-3.299 v 0 c 1.906,-2.199 2.859,-4.765 2.859,-7.697 v 0 c 0,-3.13 -0.953,-5.769 -2.859,-7.917 v 0 c -1.906,-2.151 -4.277,-3.225 -7.111,-3.225 v 0 h -50.288 v -16.129 h 47.209 c 9.187,0 16.348,2.273 21.48,6.818 v 0 c 5.131,4.545 7.696,11.264 7.696,20.159 v 0 0.587 c 0,8.797 -2.591,15.468 -7.77,20.013 v 0 c -5.181,4.545 -12.219,6.817 -21.112,6.817 v 0 h -25.511 c -3.031,0 -5.549,1.049 -7.551,3.152 v 0 c -2.004,2.101 -3.006,4.667 -3.006,7.698 v 0 c 0,2.833 1.027,5.326 3.079,7.477 v 0 c 2.053,2.149 4.495,3.226 7.332,3.226 v 0 h 48.382 v 16.127 z"
               style="fill:url(#linearGradient1394);stroke:none"
               id="path1396"
               inkscape:connector-curvature="0" /></g></g></g></g><g
       transform="matrix(0.64349486,0,0,0.68669776,-310.05206,-427.19853)"
       id="g1398"><g
         id="g1400"
         clip-path="url(#clipPath1404)"><g
           id="g1406"><g
             id="g1408"><path
               d="m 596.61,779.597 v 29.322 h -16.128 v -92.074 h 16.128 v 29.47 l 60.991,-30.349 v 17.887 l -61.431,29.029 61.431,28.444 v 18.472 z"
               style="fill:url(#linearGradient1414);stroke:none"
               id="path1416"
               inkscape:connector-curvature="0" /></g></g></g></g><g
       transform="matrix(0.64349486,0,0,0.68669776,-310.05206,-427.19853)"
       id="g1418"><g
         id="g1420"
         clip-path="url(#clipPath1424)"><g
           id="g1426"><g
             id="g1428"><path
               d="m 670.796,716.845 h 16.127 v 92.074 h -16.127 z"
               style="fill:url(#linearGradient1434);stroke:none"
               id="path1436"
               inkscape:connector-curvature="0" /></g></g></g></g><g
       transform="matrix(0.64349486,0,0,0.68669776,-310.05206,-427.19853)"
       id="g1438"><g
         id="g1440"
         clip-path="url(#clipPath1444)"><g
           id="g1446"><g
             id="g1448"><path
               d="m 700.118,808.919 v -52.195 c 0,-6.157 0.854,-11.68 2.566,-16.567 v 0 c 1.709,-4.889 4.252,-9.067 7.624,-12.535 v 0 c 3.371,-3.47 7.599,-6.134 12.682,-7.99 v 0 c 5.081,-1.859 10.996,-2.787 17.74,-2.787 v 0 h 27.564 v 16.129 H 740.29 c -7.623,0 -13.538,2.075 -17.739,6.23 v 0 c -4.205,4.154 -6.306,9.945 -6.306,17.374 v 0 52.341 z"
               style="fill:url(#linearGradient1454);stroke:none"
               id="path1456"
               inkscape:connector-curvature="0" /></g></g></g></g><g
       transform="matrix(0.64349486,0,0,0.68669776,-310.05206,-427.19853)"
       id="g1458"><g
         id="g1460"
         clip-path="url(#clipPath1464)"><g
           id="g1466"><g
             id="g1468"><path
               d="m 780.023,808.919 v -52.195 c 0,-6.157 0.854,-11.68 2.565,-16.567 v 0 c 1.709,-4.889 4.251,-9.067 7.624,-12.535 v 0 c 3.372,-3.47 7.598,-6.134 12.682,-7.99 v 0 c 5.082,-1.859 10.997,-2.787 17.74,-2.787 v 0 h 27.564 v 16.129 h -28.004 c -7.624,0 -13.538,2.075 -17.74,6.23 v 0 c -4.203,4.154 -6.303,9.945 -6.303,17.374 v 0 52.341 z"
               style="fill:url(#linearGradient1474);stroke:none"
               id="path1476"
               inkscape:connector-curvature="0" /></g></g></g></g><g
       transform="matrix(0.64349486,0,0,0.68669776,-310.05206,-427.19853)"
       id="g1478"><g
         id="g1480"
         clip-path="url(#clipPath1484)"><g
           id="g1486"><g
             id="g1488"><path
               d="m 900.539,808.919 c -27.662,0 -41.638,-15.248 -41.932,-45.743 v 0 -0.44 c 0,-30.594 13.928,-45.891 41.785,-45.891 v 0 h 15.834 c 3.42,0 6.672,0.757 9.751,2.273 v 0 c 3.079,1.515 5.79,3.519 8.137,6.011 v 0 c 2.345,2.493 4.201,5.327 5.571,8.504 v 0 c 1.368,3.175 2.052,6.425 2.052,9.75 v 0 c 0,4.104 -0.66,7.843 -1.979,11.216 v 0 c -1.32,3.372 -3.104,6.304 -5.352,8.796 v 0 c -2.249,2.493 -4.936,4.422 -8.063,5.792 v 0 c -3.129,1.368 -6.451,2.052 -9.97,2.052 v 0 h -15.395 v -16.127 h 14.661 c 2.834,0 5.206,-1.1 7.112,-3.299 v 0 c 1.906,-2.199 2.858,-4.765 2.858,-7.697 v 0 c 0,-2.933 -0.977,-5.523 -2.932,-7.77 v 0 c -1.956,-2.25 -4.302,-3.372 -7.038,-3.372 v 0 h -19.352 c -14.368,0 -21.553,9.871 -21.553,29.615 v 0 c 0,10.359 1.782,17.983 5.352,22.872 v 0 c 3.567,4.887 9.017,7.331 16.347,7.331 v 0 h 37.681 v 16.127 z"
               style="fill:url(#linearGradient1494);stroke:none"
               id="path1496"
               inkscape:connector-curvature="0" /></g></g></g></g><g
       transform="matrix(0.64349486,0,0,0.68669776,-310.05206,-427.19853)"
       id="g1498"><g
         id="g1500"
         clip-path="url(#clipPath1504)"><g
           id="g1506"><g
             id="g1508"><path
               d="m 981.175,808.919 c -5.278,0 -9.749,-0.685 -13.414,-2.052 v 0 c -3.667,-1.371 -6.648,-3.276 -8.943,-5.719 v 0 c -2.299,-2.443 -3.985,-5.328 -5.059,-8.649 v 0 c -1.077,-3.325 -1.612,-6.892 -1.612,-10.703 v 0 c 0,-3.226 0.755,-6.598 2.272,-10.117 v 0 c 1.513,-3.518 4.08,-6.354 7.697,-8.503 v 0 c -3.52,-2.151 -6.061,-4.962 -7.624,-8.431 v 0 c -1.564,-3.47 -2.345,-7.014 -2.345,-10.629 v 0 c 0,-3.422 0.512,-6.744 1.539,-9.97 v 0 c 1.026,-3.225 2.687,-6.134 4.985,-8.724 v 0 c 2.295,-2.59 5.278,-4.668 8.943,-6.23 v 0 c 3.665,-1.565 8.185,-2.347 13.561,-2.347 v 0 h 45.891 v 16.129 H 978.83 c -3.13,0 -5.67,1.048 -7.624,3.151 v 0 c -1.956,2.102 -2.933,4.861 -2.933,8.284 v 0 c 0,2.833 1.027,5.326 3.08,7.477 v 0 c 2.052,2.149 4.494,3.226 7.33,3.226 v 0 h 48.383 v 16.127 H 978.83 c -3.13,0 -5.67,1.049 -7.624,3.152 v 0 c -1.956,2.101 -2.933,4.667 -2.933,7.698 v 0 c 0,2.833 1.027,5.326 3.08,7.477 v 0 c 2.052,2.149 4.494,3.226 7.33,3.226 v 0 h 48.383 v 16.127 z"
               style="fill:url(#linearGradient1514);stroke:none"
               id="path1516"
               inkscape:connector-curvature="0" /></g></g></g></g><g
       transform="matrix(0.64349486,0,0,0.68669776,-310.05206,-427.19853)"
       id="g1518"><g
         id="g1520"
         clip-path="url(#clipPath1524)"><g
           id="g1526"><g
             id="g1528"><path
               d="m 1054.701,807.6 c -2.884,-1.077 -5.401,-2.591 -7.551,-4.545 v 0 c -2.151,-1.957 -3.837,-4.326 -5.057,-7.111 v 0 c -1.224,-2.786 -1.833,-5.89 -1.833,-9.31 v 0 -69.789 h 17.154 v 68.03 c 0,5.374 2.295,8.064 6.891,8.064 v 0 c 1.465,0 2.613,-0.491 3.445,-1.467 v 0 c 0.829,-0.978 1.539,-2.396 2.126,-4.252 v 0 l 18.473,-56.593 c 1.466,-4.496 4.105,-8.016 7.918,-10.556 v 0 c 3.811,-2.542 8.063,-3.812 12.754,-3.812 v 0 c 3.322,0 6.426,0.539 9.311,1.613 v 0 c 2.882,1.074 5.399,2.589 7.55,4.545 v 0 c 2.149,1.954 3.835,4.325 5.058,7.11 v 0 c 1.221,2.787 1.833,5.888 1.833,9.311 v 0 70.081 h -17.154 v -68.322 c 0,-5.376 -2.297,-8.064 -6.89,-8.064 v 0 c -1.466,0 -2.616,0.488 -3.446,1.467 v 0 c -0.832,0.976 -1.54,2.393 -2.126,4.251 v 0 l -18.473,56.593 c -1.467,4.495 -4.106,8.014 -7.918,10.556 v 0 c -3.811,2.541 -8.063,3.812 -12.755,3.812 v 0 c -3.323,0 -6.428,-0.538 -9.31,-1.612"
               style="fill:url(#linearGradient1534);stroke:none"
               id="path1536"
               inkscape:connector-curvature="0" /></g></g></g></g><g
       transform="matrix(0.64349486,0,0,0.68669776,-310.05206,-427.19853)"
       id="g1538"><g
         id="g1540"
         clip-path="url(#clipPath1544)"><g
           id="g1546"><g
             id="g1548"><path
               d="m 1173.53,808.919 c -5.278,0 -9.75,-0.685 -13.415,-2.052 v 0 c -3.665,-1.371 -6.648,-3.276 -8.943,-5.719 v 0 c -2.298,-2.443 -3.984,-5.328 -5.059,-8.649 v 0 c -1.076,-3.325 -1.612,-6.892 -1.612,-10.703 v 0 c 0,-3.226 0.756,-6.598 2.273,-10.117 v 0 c 1.513,-3.518 4.079,-6.354 7.696,-8.503 v 0 c -3.519,-2.151 -6.061,-4.962 -7.623,-8.431 v 0 c -1.565,-3.47 -2.346,-7.014 -2.346,-10.629 v 0 c 0,-3.422 0.512,-6.744 1.539,-9.97 v 0 c 1.026,-3.225 2.688,-6.134 4.985,-8.724 v 0 c 2.295,-2.59 5.278,-4.668 8.944,-6.23 v 0 c 3.664,-1.565 8.184,-2.347 13.561,-2.347 v 0 h 45.89 v 16.129 h -48.236 c -3.129,0 -5.67,1.048 -7.624,3.151 v 0 c -1.955,2.102 -2.932,4.861 -2.932,8.284 v 0 c 0,2.833 1.026,5.326 3.079,7.477 v 0 c 2.053,2.149 4.495,3.226 7.331,3.226 v 0 h 48.382 v 16.127 h -48.236 c -3.129,0 -5.67,1.049 -7.624,3.152 v 0 c -1.955,2.101 -2.932,4.667 -2.932,7.698 v 0 c 0,2.833 1.026,5.326 3.079,7.477 v 0 c 2.053,2.149 4.495,3.226 7.331,3.226 v 0 h 48.382 v 16.127 z"
               style="fill:url(#linearGradient1554);stroke:none"
               id="path1556"
               inkscape:connector-curvature="0" /></g></g></g></g><g
       transform="matrix(0.64349486,0,0,0.68669776,-310.05206,-427.19853)"
       id="g1558"><g
         id="g1560"
         clip-path="url(#clipPath1564)"><g
           id="g1566"><g
             id="g1568"><path
               d="m 1255.927,808.919 c -5.182,0 -9.603,-0.71 -13.269,-2.126 v 0 c -3.665,-1.417 -6.671,-3.372 -9.016,-5.864 v 0 c -2.346,-2.492 -4.058,-5.377 -5.132,-8.65 v 0 c -1.077,-3.276 -1.613,-6.77 -1.613,-10.483 v 0 c 0,-3.129 0.513,-6.282 1.539,-9.457 v 0 c 1.027,-3.177 2.688,-6.037 4.986,-8.576 v 0 c 2.295,-2.544 5.277,-4.619 8.943,-6.232 v 0 c 3.665,-1.613 8.185,-2.419 13.562,-2.419 v 0 h 25.95 c 2.834,0 5.205,-1.1 7.111,-3.299 v 0 c 1.906,-2.199 2.858,-4.765 2.858,-7.697 v 0 c 0,-3.13 -0.952,-5.769 -2.858,-7.917 v 0 c -1.906,-2.151 -4.277,-3.225 -7.111,-3.225 v 0 h -50.288 v -16.129 h 47.21 c 9.186,0 16.347,2.296 21.479,6.891 v 0 c 5.131,4.594 7.696,11.485 7.696,20.673 v 0 c 0,8.797 -2.591,15.468 -7.77,20.013 v 0 c -5.181,4.545 -12.219,6.817 -21.112,6.817 v 0 h -25.511 c -3.031,0 -5.549,1.049 -7.551,3.152 v 0 c -2.005,2.101 -3.006,4.667 -3.006,7.698 v 0 c 0,2.833 1.027,5.326 3.079,7.477 v 0 c 2.053,2.149 4.496,3.226 7.331,3.226 v 0 h 48.383 v 16.127 z"
               style="fill:url(#linearGradient1574);stroke:none"
               id="path1576"
               inkscape:connector-curvature="0" /></g></g></g></g><g
       transform="matrix(0.64349486,0,0,0.68669776,-310.05206,-427.19853)"
       id="g1578"><g
         id="g1580"
         clip-path="url(#clipPath1584)"><g
           id="g1586"><g
             id="g1588"><path
               d="m 1319.85,716.845 h 16.127 v 92.074 h -16.127 z"
               style="fill:url(#linearGradient1594);stroke:none"
               id="path1596"
               inkscape:connector-curvature="0" /></g></g></g></g><g
       transform="matrix(0.64349486,0,0,0.68669776,-310.05206,-427.19853)"
       id="g1598"><g
         id="g1600"
         clip-path="url(#clipPath1604)"><g
           id="g1606"><g
             id="g1608"><path
               d="m 1376.735,808.919 c -5.181,0 -9.604,-0.71 -13.268,-2.126 v 0 c -3.665,-1.417 -6.671,-3.372 -9.017,-5.864 v 0 c -2.346,-2.492 -4.058,-5.377 -5.131,-8.65 v 0 c -1.077,-3.276 -1.613,-6.77 -1.613,-10.483 v 0 c 0,-3.129 0.513,-6.282 1.539,-9.457 v 0 c 1.027,-3.177 2.687,-6.037 4.985,-8.576 v 0 c 2.295,-2.544 5.278,-4.619 8.944,-6.232 v 0 c 3.665,-1.613 8.185,-2.419 13.561,-2.419 v 0 h 25.95 c 2.834,0 5.206,-1.1 7.112,-3.299 v 0 c 1.906,-2.199 2.858,-4.765 2.858,-7.697 v 0 c 0,-3.13 -0.952,-5.769 -2.858,-7.917 v 0 c -1.906,-2.151 -4.278,-3.225 -7.112,-3.225 v 0 h -50.287 v -16.129 h 47.209 c 9.185,0 16.347,2.296 21.479,6.891 v 0 c 5.131,4.594 7.697,11.485 7.697,20.673 v 0 c 0,8.797 -2.591,15.468 -7.77,20.013 v 0 c -5.182,4.545 -12.221,6.817 -21.112,6.817 v 0 h -25.511 c -3.031,0 -5.549,1.049 -7.551,3.152 v 0 c -2.005,2.101 -3.006,4.667 -3.006,7.698 v 0 c 0,2.833 1.026,5.326 3.079,7.477 v 0 c 2.053,2.149 4.495,3.226 7.331,3.226 v 0 h 48.382 v 16.127 z"
               style="fill:url(#linearGradient1614);stroke:none"
               id="path1616"
               inkscape:connector-curvature="0" /></g></g></g></g><g
       transform="matrix(0.64349486,0,0,0.68669776,-310.05206,-427.19853)"
       id="g1618"><g
         id="g1620"
         clip-path="url(#clipPath1624)"><path
           d="m 1232.527,657.797 h 12.118 V 642.99 h -12.118 z"
           style="fill:#bfbfbf;fill-opacity:1;fill-rule:nonzero;stroke:none"
           id="path1626"
           inkscape:connector-curvature="0" /><g
           id="g1628"
           transform="translate(1297.1787,682.4551)"><path
             d="m 0,0 -11.962,-2.635 c -0.883,5.866 -3.656,8.8 -8.319,8.8 -3.003,0 -5.424,-1.269 -7.261,-3.806 -1.837,-2.537 -2.756,-6.817 -2.756,-12.842 0,-6.66 0.916,-11.363 2.748,-14.111 1.832,-2.748 4.28,-4.122 7.344,-4.122 2.29,0 4.175,0.781 5.654,2.345 1.48,1.562 2.536,4.329 3.17,8.299 l 11.961,-2.477 c -2.459,-13.488 -9.537,-20.233 -21.233,-20.233 -7.483,0 -13.034,2.85 -16.651,8.551 -3.618,5.7 -5.426,12.563 -5.426,20.586 0,9.607 2.047,16.917 6.145,21.932 4.097,5.015 9.47,7.523 16.115,7.523 5.382,0 9.769,-1.423 13.163,-4.268 C -3.914,10.696 -1.478,6.183 0,0"
             style="fill:#bfbfbf;fill-opacity:1;fill-rule:nonzero;stroke:none"
             id="path1630"
             inkscape:connector-curvature="0" /></g><g
           id="g1632"
           transform="translate(1315.9355,670.9687)"><path
             d="m 0,0 c 0,-5.673 1.109,-9.963 3.326,-12.869 2.219,-2.907 4.896,-4.36 8.028,-4.36 3.063,0 5.686,1.461 7.87,4.386 2.182,2.925 3.274,7.24 3.274,12.948 0,5.568 -1.109,9.813 -3.327,12.738 -2.219,2.924 -4.877,4.386 -7.975,4.386 -3.063,0 -5.695,-1.462 -7.895,-4.386 C 1.1,9.918 0,5.637 0,0 m -12.436,0.792 c 0,5.49 1.089,10.486 3.268,14.99 2.177,4.504 5.022,7.883 8.535,10.135 3.513,2.252 7.465,3.379 11.856,3.379 7.377,0 13.172,-2.896 17.387,-8.684 4.215,-5.789 6.324,-12.553 6.324,-20.295 0,-5.771 -1.099,-10.979 -3.294,-15.625 -2.196,-4.645 -5.077,-8.138 -8.641,-10.478 -3.565,-2.339 -7.474,-3.51 -11.724,-3.51 -6.814,0 -12.47,2.605 -16.966,7.813 -4.497,5.208 -6.745,12.633 -6.745,22.275"
             style="fill:#bfbfbf;fill-opacity:1;fill-rule:nonzero;stroke:none"
             id="path1634"
             inkscape:connector-curvature="0" /></g><g
           id="g1636"
           transform="translate(1359.457,698.9473)"><path
             d="m 0,0 h 11.171 v -7.641 c 2.002,2.986 4.196,5.225 6.586,6.718 2.388,1.494 4.97,2.24 7.745,2.24 2.95,0 5.506,-0.737 7.666,-2.213 2.161,-1.475 3.926,-3.707 5.295,-6.692 2.037,2.985 4.224,5.217 6.56,6.692 2.336,1.476 4.822,2.213 7.456,2.213 3.126,0 5.823,-0.747 8.087,-2.242 2.266,-1.494 3.987,-3.63 5.164,-6.407 1.177,-2.778 1.765,-7.049 1.765,-12.815 v -35.81 H 55.324 v 32.02 c 0,5.591 -0.492,9.31 -1.475,11.157 -0.984,1.844 -2.635,2.768 -4.953,2.768 -2.706,0 -4.882,-1.292 -6.534,-3.877 -1.65,-2.585 -2.475,-7.64 -2.475,-15.165 V -55.957 H 27.715 v 30.701 c 0,6.083 -0.334,10.004 -1.001,11.763 -0.878,2.321 -2.652,3.481 -5.322,3.481 -1.791,0 -3.443,-0.598 -4.953,-1.794 -1.511,-1.194 -2.599,-2.944 -3.266,-5.247 -0.668,-2.304 -1.002,-6.199 -1.002,-11.685 V -55.957 H 0 Z"
             style="fill:#bfbfbf;fill-opacity:1;fill-rule:nonzero;stroke:none"
             id="path1638"
             inkscape:connector-curvature="0" /></g></g></g><g
       transform="matrix(0.68208405,0,0,0.68208405,134.67129,-257.03624)"
       id="g1640"><g
         id="g1642"
         clip-path="url(#clipPath1646)"><g
           id="g1648"><g
             id="g1650"><path
               d="m 73.048,775.57 c 0,-15.628 2.031,-30.784 5.856,-45.229 v 0 c 0.522,7.292 1.933,14.641 4.551,21.819 v 0 c -1.068,7.651 -1.622,15.465 -1.622,23.41 v 0 c 0,92.849 75.555,168.398 168.405,168.398 v 0 c 23.205,0 45.344,-4.723 65.483,-13.256 v 0 c 2.128,-0.897 4.224,-1.843 6.305,-2.83 v 0 c 0.204,-0.089 0.399,-0.187 0.595,-0.277 v 0 c 1.012,-0.481 2.007,-0.97 3.002,-1.476 v 0 c 28.01,-14.079 51.575,-35.752 67.979,-62.294 v 0 c 2.993,0.816 5.905,1.673 8.712,2.594 v 0 c -30.996,51.674 -87.564,86.332 -152.076,86.332 v 0 c -97.711,0 -177.19,-79.48 -177.19,-177.191 m 343.572,26.135 c 1.33,-8.516 2.023,-17.243 2.023,-26.135 v 0 c 0,-92.857 -75.556,-168.405 -168.405,-168.405 v 0 c -26.306,0 -51.225,6.068 -73.436,16.885 v 0 c -0.571,0.277 -1.134,0.554 -1.696,0.84 v 0 c -1.95,-2.414 -3.646,-4.838 -5.139,-7.243 v 0 c 0.383,-0.205 0.767,-0.4 1.158,-0.596 v 0 c 23.818,-11.949 50.694,-18.671 79.113,-18.671 v 0 c 97.694,0 177.19,79.496 177.19,177.19 v 0 c 0,12.52 -1.305,24.732 -3.785,36.518 v 0 c -2.178,-3.654 -4.518,-7.113 -7.023,-10.383"
               style="fill:url(#linearGradient1656);stroke:none"
               id="path1658"
               inkscape:connector-curvature="0" /></g></g></g></g><g
       transform="matrix(0.68208405,0,0,0.68208405,134.67129,-257.03624)"
       id="g1660"><g
         id="g1662"
         clip-path="url(#clipPath1666)"><g
           id="g1668"><g
             id="g1670"><path
               d="m 437.113,873.94 c -1.859,-2.141 -3.948,-4.101 -6.218,-5.959 v 0 C 382.289,828.458 245.323,847.704 148.654,808.489 v 0 C 41.589,765.069 111.245,655.631 111.245,655.631 v 0 c 10.965,144.474 301.85,28.38 326.358,218.852 v 0 c -0.155,-0.181 -0.31,-0.361 -0.49,-0.543"
               style="fill:url(#linearGradient1676);stroke:none"
               id="path1678"
               inkscape:connector-curvature="0" /></g></g></g></g><g
       transform="matrix(0.68208405,0,0,0.68208405,134.67129,-257.03624)"
       id="g1680"><g
         id="g1682"
         clip-path="url(#clipPath1686)"><g
           id="g1688"><g
             id="g1690"><path
               d="m 326.848,921.076 c -31.32,-13.313 -102.371,-2.063 -162.275,-23.375 v 0 C 112.536,879.23 125.874,820.305 125.874,820.305 v 0 c 0,0 24.07,18.937 107.916,27.089 v 0 c 54.411,5.315 77.681,34.88 87.305,54.978 v 0 c 5.211,10.888 6.424,18.988 6.424,18.988 v 0 c -0.233,-0.104 -0.439,-0.206 -0.671,-0.284"
               style="fill:url(#linearGradient1696);stroke:none"
               id="path1698"
               inkscape:connector-curvature="0" /></g></g></g></g><g
       transform="matrix(0.68208405,0,0,0.68208405,134.67129,-257.03624)"
       id="g1700"><g
         id="g1702"
         clip-path="url(#clipPath1706)"><g
           id="g1708"><g
             id="g1710"><path
               d="m 333.865,745.876 c -0.31,-0.232 -0.619,-0.464 -0.928,-0.672 v 0 C 300.198,722.966 227.78,734.989 175.744,706.584 v 0 c -52.295,-28.56 -53.843,-73.528 -21.078,-117.591 v 0 c 0,0 -1.419,62.407 84.284,74.815 v 0 c 95.017,13.752 95.017,82.118 95.017,82.118 v 0 c -0.024,-0.025 -0.076,-0.05 -0.102,-0.05"
               style="fill:url(#linearGradient1716);stroke:none"
               id="path1718"
               inkscape:connector-curvature="0" /></g></g></g></g><g
       transform="matrix(0.68208405,0,0,0.68208405,134.67129,-257.03624)"
       id="g1720"><g
         id="g1722"
         clip-path="url(#clipPath1726)"><g
           id="g1728"><g
             id="g1730"><path
               d="M 437.061,873.633 C 385.05,788.057 112.227,805.317 110.369,670.853 v 0 c -0.078,-4.85 0.207,-9.934 0.876,-15.222 v 0 c 10.965,144.474 301.85,28.38 326.358,218.852 v 0 c -0.181,-0.284 -0.336,-0.568 -0.542,-0.85"
               style="fill:url(#linearGradient1736);stroke:none"
               id="path1738"
               inkscape:connector-curvature="0" /></g></g></g></g><g
       transform="matrix(0.68208405,0,0,0.68208405,134.67129,-257.03624)"
       id="g1740"><g
         id="g1742"
         clip-path="url(#clipPath1746)"><g
           id="g1748"><g
             id="g1750" /><g
             id="g1762"><g
               clip-path="url(#clipPath1754)"
               id="g1760"
               style="opacity:0.30000299"><g
                 transform="translate(437.1128,873.9409)"
                 id="g1758"><path
                   d="M 0,0 C -0.026,-0.103 -0.026,-0.206 -0.052,-0.309 -52.063,-85.884 -324.886,-68.624 -326.744,-203.088 -328.705,-70.172 -71.154,-82.53 -6.218,-5.96 -3.948,-4.102 -1.858,-2.141 0,0"
                   style="fill:#ffffff;fill-opacity:1;fill-rule:nonzero;stroke:none"
                   id="path1756"
                   inkscape:connector-curvature="0" /></g></g></g></g></g></g><g
       transform="matrix(0.68208405,0,0,0.68208405,134.67129,-257.03624)"
       id="g1764"><g
         id="g1766"
         clip-path="url(#clipPath1770)"><g
           id="g1772"><g
             id="g1774"><path
               d="M 333.865,745.694 C 310.852,687.235 147.777,700.418 146.565,623.305 v 0 c -0.155,-9.856 2.347,-21.181 8.101,-34.312 v 0 c 0,0 -1.419,62.407 84.284,74.815 v 0 c 95.017,13.752 95.017,82.118 95.017,82.118 v 0 c -0.024,-0.076 -0.05,-0.154 -0.102,-0.232"
               style="fill:url(#linearGradient1780);stroke:none"
               id="path1782"
               inkscape:connector-curvature="0" /></g></g></g></g><g
       transform="matrix(0.68208405,0,0,0.68208405,134.67129,-257.03624)"
       id="g1784"><g
         id="g1786"
         clip-path="url(#clipPath1790)"><g
           id="g1792"><g
             id="g1794" /><g
             id="g1806"><g
               clip-path="url(#clipPath1798)"
               id="g1804"
               style="opacity:0.30000299"><g
                 transform="translate(333.8647,745.876)"
                 id="g1802"><path
                   d="m 0,0 v -0.182 c -23.013,-58.46 -186.087,-45.276 -187.299,-122.389 -1.188,78.016 159.927,65.555 186.371,121.899 C -0.619,-0.464 -0.309,-0.232 0,0"
                   style="fill:#ffffff;fill-opacity:1;fill-rule:nonzero;stroke:none"
                   id="path1800"
                   inkscape:connector-curvature="0" /></g></g></g></g></g></g><g
       transform="matrix(0.68208405,0,0,0.68208405,134.67129,-257.03624)"
       id="g1808"><g
         id="g1810"
         clip-path="url(#clipPath1814)"><g
           id="g1816"><g
             id="g1818"><path
               d="m 131.653,836.429 c -0.026,-0.076 -0.077,-0.154 -0.129,-0.232 v 0 c -2.399,-4.643 -4.309,-9.932 -5.65,-15.892 v 0 c 0,0 24.07,18.937 107.916,27.089 v 0 c 53.715,5.237 77.062,34.133 86.918,54.203 v 0 c 0.128,0.284 0.258,0.542 0.387,0.775 v 0 c 5.211,10.888 6.424,18.988 6.424,18.988 v 0 C 281.622,852.502 163.515,897.599 131.653,836.429"
               style="fill:url(#linearGradient1824);stroke:none"
               id="path1826"
               inkscape:connector-curvature="0" /></g></g></g></g><g
       transform="matrix(0.68208405,0,0,0.68208405,134.67129,-257.03624)"
       id="g1828"><g
         id="g1830"
         clip-path="url(#clipPath1834)"><g
           id="g1836"><g
             id="g1838" /><g
             id="g1850"><g
               clip-path="url(#clipPath1842)"
               id="g1848"
               style="opacity:0.30000299"><g
                 transform="translate(327.519,921.3594)"
                 id="g1846"><path
                   d="M 0,0 C -45.897,-68.857 -164.004,-23.761 -195.866,-84.93 -166.12,-21.206 -48.321,-66.303 -0.671,-0.283 -0.439,-0.206 -0.233,-0.103 0,0"
                   style="fill:#ffffff;fill-opacity:1;fill-rule:nonzero;stroke:none"
                   id="path1844"
                   inkscape:connector-curvature="0" /></g></g></g></g></g></g></g></svg>