<?xml version="1.0" encoding="UTF-8" standalone="no"?>
<svg
   xmlns:dc="http://purl.org/dc/elements/1.1/"
   xmlns:cc="http://creativecommons.org/ns#"
   xmlns:rdf="http://www.w3.org/1999/02/22-rdf-syntax-ns#"
   xmlns:svg="http://www.w3.org/2000/svg"
   xmlns="http://www.w3.org/2000/svg"
   viewBox="0 0 816 538.78668"
   height="538.78668"
   width="816"
   xml:space="preserve"
   id="svg2"
   version="1.1"><metadata
     id="metadata8"><rdf:RDF><cc:Work
         rdf:about=""><dc:format>image/svg+xml</dc:format><dc:type
           rdf:resource="http://purl.org/dc/dcmitype/StillImage" /></cc:Work></rdf:RDF></metadata><defs
     id="defs6"><clipPath
       id="clipPath20"
       clipPathUnits="userSpaceOnUse"><path
         id="path18"
         d="M 0,404.09 H 612 V 0 H 0 Z" /></clipPath></defs><g
     transform="matrix(1.3333333,0,0,-1.3333333,0,538.78667)"
     id="g10"><path
       id="path12"
       style="fill:#e54d3e;fill-opacity:1;fill-rule:nonzero;stroke:none"
       d="M 0,0 H 612 V 404.09 H 0 Z" /><g
       id="g14"><g
         clip-path="url(#clipPath20)"
         id="g16"><g
           transform="translate(248.75,229.9365)"
           id="g22"><path
             id="path24"
             style="fill:#ffffff;fill-opacity:1;fill-rule:evenodd;stroke:none"
             d="m 0,0 c 5.24,3.8 10.783,7.263 15.656,11.499 6.062,5.274 9.78,11.977 8.694,20.435 -0.707,5.497 -3.651,9.98 -7.167,14.07 -2.125,2.468 -4.468,4.746 -6.327,7.304 C 43.04,32.735 50.697,0.776 51.148,-34.535 48.774,-22.851 43.458,-13.16 32.808,-6.994 22.561,-1.063 11.308,0.06 0,0" /></g><g
           transform="translate(366.1182,283.2656)"
           id="g26"><path
             id="path28"
             style="fill:#ffffff;fill-opacity:1;fill-rule:evenodd;stroke:none"
             d="m 0,0 c -3.142,-3.636 -6.361,-6.845 -8.983,-10.48 -7.434,-10.326 -6.748,-21.127 2.484,-29.821 4.772,-4.499 10.649,-7.84 16.032,-11.693 0.447,-0.322 0.956,-0.557 1.497,-0.863 -5.887,-0.627 -11.646,-0.919 -17.285,-1.899 -17.682,-3.084 -29.619,-12.621 -33.549,-30.787 -0.045,-0.203 -0.287,-0.363 -0.441,-0.541 C -41.489,-51.846 -28.354,-15.047 0,0" /></g><g
           transform="translate(372.9805,257.9355)"
           id="g30"><path
             id="path32"
             style="fill:#ffffff;fill-opacity:1;fill-rule:evenodd;stroke:none"
             d="m 0,0 c -0.02,-4.229 -3.146,-7.345 -7.4,-7.396 -4.469,-0.051 -7.611,3.086 -7.569,7.572 0.045,4.268 3.149,7.368 7.399,7.388 C -3.123,7.591 0.025,4.444 0,0" /></g><g
           transform="translate(267.3501,258.1895)"
           id="g34"><path
             id="path36"
             style="fill:#ffffff;fill-opacity:1;fill-rule:evenodd;stroke:none"
             d="m 0,0 c 0.049,-4.633 -2.875,-7.647 -7.418,-7.65 -4.273,0 -7.457,3.102 -7.508,7.326 -0.052,4.227 3.059,7.532 7.194,7.635 C -3.122,7.428 -0.051,4.52 0,0" /></g><g
           transform="translate(306.167,208.0801)"
           id="g38"><path
             id="path40"
             style="fill:#ffffff;fill-opacity:1;fill-rule:evenodd;stroke:none"
             d="m 0,0 c -3.04,55.422 -40.575,82.498 -44.645,85.266 l 3.303,1.879 -4.936,1.31 -1.669,4.879 -1.816,-3.451 h -5.836 l 3.451,-4.076 -2.852,-4.019 5.267,0.625 2.322,-3.482 0.443,2.766 C -6.905,52.351 0,0 0,0" /></g><g
           transform="translate(270.3301,292.959)"
           id="g42"><path
             id="path44"
             style="fill:#ffffff;fill-opacity:1;fill-rule:evenodd;stroke:none"
             d="m 0,0 c 0,0 43.334,-44.173 45.477,-95.777 0,0 -0.357,64.588 38.212,95.777 0,0 -43.804,-25.83 -83.689,0" /></g><g
           transform="translate(321.999,293.9824)"
           id="g46"><path
             id="path48"
             style="fill:#ffffff;fill-opacity:1;fill-rule:evenodd;stroke:none"
             d="m 0,0 c 0,-5.423 -4.399,-9.82 -9.824,-9.82 -5.425,0 -9.822,4.397 -9.822,9.82 0,5.423 4.397,9.824 9.822,9.824 C -4.399,9.824 0,5.423 0,0" /></g><g
           transform="translate(234.3794,225.8203)"
           id="g50"><path
             id="path52"
             style="fill:#ffffff;fill-opacity:1;fill-rule:evenodd;stroke:none"
             d="m 0,0 -34.284,-25.236 c 0,0 81.784,22.142 113.924,-43.931 0,0 26.07,62.858 115.713,43.931 L 160.355,0 181.072,-20.238 c 0,0 -64.286,17.5 -100.537,-38.573 0,0 -29.464,52.143 -101.964,38.928 z" /></g><g
           transform="translate(197.5947,188.4404)"
           id="g54"><path
             id="path56"
             style="fill:#ffffff;fill-opacity:1;fill-rule:evenodd;stroke:none"
             d="m 0,0 c 0,0 66.785,21.425 108.572,-31.787 0,0 -13.573,54.275 -97.856,40.528 z" /></g><g
           transform="translate(200.0957,175.8213)"
           id="g58"><path
             id="path60"
             style="fill:#ffffff;fill-opacity:1;fill-rule:evenodd;stroke:none"
             d="m 0,0 c 0,0 56.188,14.76 95.236,-12.859 0,0 -31.664,26.905 -80.234,23.571 z" /></g><g
           transform="translate(428.2578,188.4404)"
           id="g62"><path
             id="path64"
             style="fill:#ffffff;fill-opacity:1;fill-rule:evenodd;stroke:none"
             d="m 0,0 c 0,0 -66.125,21.425 -107.5,-31.787 0,0 13.439,54.275 96.89,40.528 z" /></g><g
           transform="translate(425.7852,175.8213)"
           id="g66"><path
             id="path68"
             style="fill:#ffffff;fill-opacity:1;fill-rule:evenodd;stroke:none"
             d="m 0,0 c 0,0 -55.637,14.76 -94.298,-12.859 0,0 31.351,26.905 79.443,23.571 z" /></g><g
           transform="translate(250.2031,287.0107)"
           id="g70"><path
             id="path72"
             style="fill:#ffffff;fill-opacity:1;fill-rule:evenodd;stroke:none"
             d="m 0,0 c -9.135,-12.786 -14.515,-28.447 -14.515,-45.358 0,-1.06 0.029,-2.112 0.073,-3.163 0.723,18.516 7.713,35.397 18.872,48.521 z" /></g><g
           transform="translate(364.1094,297.9004)"
           id="g74"><path
             id="path76"
             style="fill:#ffffff;fill-opacity:1;fill-rule:evenodd;stroke:none"
             d="m 0,0 v 3.463 c -13.594,11.469 -31.15,18.383 -50.328,18.383 -19.828,0 -37.928,-7.393 -51.7,-19.576 l 0.692,-2.448 3.11,0.129 c 13.412,11.011 29.302,16.658 47.898,16.658 18.385,0 35.274,-6.46 48.614,-17.24 z" /></g><g
           transform="translate(374.5098,297.9629)"
           id="g78"><path
             id="path80"
             style="fill:#ffffff;fill-opacity:1;fill-rule:evenodd;stroke:none"
             d="m 0,0 h -5.785 l -2.955,3.451 -0.499,-4.879 -5.044,-1.908 3.883,-1.189 c 0,0 -1.652,-0.969 -3.26,-2.163 -0.225,-0.171 -0.475,-0.363 -0.731,-0.566 -0.008,-0.004 -0.019,-0.016 -0.033,-0.022 -9.455,-7.408 -38.049,-33.697 -40.706,-82.607 0,0 5.588,50.461 44.376,79.932 v 0.01 c 0,0 0.046,0.026 0.117,0.08 0.305,0.228 0.606,0.458 0.91,0.689 l 0.018,-0.064 c 0.736,0.494 1.654,1.094 2.017,1.259 l 0.741,-3.384 2.113,4.054 3.728,-0.163 -2.235,3.481 z" /></g><g
           transform="translate(376.9639,281.8477)"
           id="g82"><path
             id="path84"
             style="fill:#ffffff;fill-opacity:1;fill-rule:evenodd;stroke:none"
             d="m 0,0 c 8.799,-12.263 14.208,-27.187 14.847,-43.357 0.04,1.05 0.069,2.102 0.069,3.162 0,18.576 -6.907,36.177 -17.737,49.582 l 0.249,-2.86 -3.674,0.599 c 0,0 3.995,-4.155 5.939,-6.712 0.074,-0.098 0.15,-0.193 0.22,-0.287 C -0.058,0.083 -0.028,0.043 0,0" /></g><g
           transform="translate(121.2075,133.4336)"
           id="g86"><path
             id="path88"
             style="fill:#ffffff;fill-opacity:1;fill-rule:nonzero;stroke:none"
             d="m 0,0 h 12.624 v -32.976 h 7.503 V 0 H 32.749 V 6.824 H 0 Z" /></g><g
           transform="translate(184.0918,117.4014)"
           id="g90"><path
             id="path92"
             style="fill:#ffffff;fill-opacity:1;fill-rule:nonzero;stroke:none"
             d="m 0,0 c 0,-6.823 -3.522,-10.976 -9.72,-10.976 -6.197,0 -10.293,3.813 -10.293,10.976 v 22.799 h -7.45 V 0 c 0,-11.994 8.133,-17.796 17.683,-17.796 10.007,0 17.232,6.025 17.232,17.796 V 22.799 H 0 Z" /></g><g
           transform="translate(226.2217,140.2578)"
           id="g94"><path
             id="path96"
             style="fill:#ffffff;fill-opacity:1;fill-rule:nonzero;stroke:none"
             d="m 0,0 h -32.748 v -6.824 h 12.621 V -39.8 h 7.508 v 32.976 l 12.619,0 z" /></g><g
           transform="translate(245.3853,106.4258)"
           id="g98"><path
             id="path100"
             style="fill:#ffffff;fill-opacity:1;fill-rule:nonzero;stroke:none"
             d="M 0,0 C -9.381,0 -12.906,6.996 -13.075,13.534 -13.247,20.243 -9.381,27.805 0,27.805 9.381,27.805 13.135,20.301 13.02,13.59 12.906,7.052 9.381,0 0,0 m 0,34.629 c -13.761,0 -20.467,-10.521 -20.467,-20.982 0,-10.46 6.482,-20.525 20.467,-20.525 13.985,0 20.301,10.292 20.412,20.583 C 20.528,24.108 13.701,34.629 0,34.629" /></g><g
           transform="translate(288.1982,106.5977)"
           id="g102"><path
             id="path104"
             style="fill:#ffffff;fill-opacity:1;fill-rule:nonzero;stroke:none"
             d="m 0,0 c -9.835,0 -13.645,6.88 -13.701,13.476 -0.057,6.653 4.093,13.818 13.701,13.818 3.472,0 6.991,-1.197 9.61,-3.754 l 5.003,4.833 C 10.519,32.408 5.403,34.457 0,34.457 -14.384,34.457 -21.148,23.881 -21.095,13.476 -21.037,3.129 -14.782,-7.05 0,-7.05 c 5.745,0 11.03,1.874 15.122,5.912 L 10.007,4.036 C 7.392,1.424 3.472,0 0,0" /></g><g
           transform="translate(318.2695,114.958)"
           id="g106"><path
             id="path108"
             style="fill:#ffffff;fill-opacity:1;fill-rule:nonzero;stroke:none"
             d="M 0,0 7.391,16.94 14.782,0 Z m 3.298,25.3 -17.853,-39.8 h 8.131 l 3.409,7.506 H 17.797 L 21.15,-14.5 h 8.185 L 11.484,25.3 Z" /></g><g
           transform="translate(367.334,107.6768)"
           id="g110"><path
             id="path112"
             style="fill:#ffffff;fill-opacity:1;fill-rule:nonzero;stroke:none"
             d="M 0,0 H -8.188 V 25.477 H 0 c 8.643,0 12.28,-6.2 12.451,-12.397 C 12.623,6.598 9.041,0 0,0 m 0,32.581 h -15.637 v -39.8 H 0 c 13.93,0 20.071,10.176 19.899,20.24 -0.17,9.836 -6.254,19.56 -19.899,19.56" /></g><g
           transform="translate(391.041,100.458)"
           id="g114"><path
             id="path116"
             style="fill:#ffffff;fill-opacity:1;fill-rule:nonzero;stroke:none"
             d="M 0,0 H 29.793 V 7.39 H 7.447 v 8.985 h 21.552 v 6.992 H 7.447 v 9.154 H 29.793 V 39.8 H 0 Z" /></g><g
           transform="translate(444.7129,123.0859)"
           id="g118"><path
             id="path120"
             style="fill:#ffffff;fill-opacity:1;fill-rule:nonzero;stroke:none"
             d="m 0,0 -12.45,17.114 h -8.643 v -39.8 h 7.506 V 6.256 L -0.908,-11.086 H 0.569 L 13.531,6.197 v -28.883 h 7.506 v 39.8 h -8.585 z" /></g><g
           transform="translate(497.0771,140.2578)"
           id="g122"><path
             id="path124"
             style="fill:#ffffff;fill-opacity:1;fill-rule:nonzero;stroke:none"
             d="M 0,0 -10.574,-16.433 -20.694,0 h -8.924 v -0.34 l 15.293,-23.026 V -39.8 h 7.503 v 16.434 L 9.044,-0.34 V 0 Z" /></g><g
           transform="translate(421.1787,77.1807)"
           id="g126"><path
             id="path128"
             style="fill:#ffffff;fill-opacity:1;fill-rule:nonzero;stroke:none"
             d="M 0,0 C 0,-2.662 4.037,-2.662 4.037,0 4.037,2.665 0,2.665 0,0" /></g><g
           transform="translate(437.5029,78.4443)"
           id="g130"><path
             id="path132"
             style="fill:#ffffff;fill-opacity:1;fill-rule:nonzero;stroke:none"
             d="m 0,0 c -4.853,0 -6.731,3.394 -6.76,6.648 -0.029,3.281 2.021,6.817 6.76,6.817 1.709,0 3.449,-0.592 4.742,-1.852 l 2.466,2.383 C 5.189,15.99 2.661,16.998 0,16.998 -7.096,16.998 -10.436,11.78 -10.409,6.648 -10.381,1.542 -7.296,-3.479 0,-3.479 c 2.833,0 5.443,0.926 7.461,2.918 L 4.937,1.989 C 3.647,0.701 1.709,0 0,0" /></g><g
           transform="translate(456.7715,78.3574)"
           id="g134"><path
             id="path136"
             style="fill:#ffffff;fill-opacity:1;fill-rule:nonzero;stroke:none"
             d="m 0,0 c -4.629,0 -6.369,3.449 -6.451,6.68 -0.087,3.309 1.822,7.041 6.451,7.041 4.628,0 6.478,-3.705 6.424,-7.017 C 6.366,3.48 4.628,0 0,0 m 0,17.085 c -6.792,0 -10.099,-5.191 -10.099,-10.35 0,-5.164 3.199,-10.127 10.099,-10.127 6.897,0 10.013,5.077 10.068,10.155 C 10.124,11.894 6.762,17.085 0,17.085" /></g><g
           transform="translate(486.6416,95.0195)"
           id="g138"><path
             id="path140"
             style="fill:#ffffff;fill-opacity:1;fill-rule:nonzero;stroke:none"
             d="M 0,0 -6.142,-8.442 -12.283,0 h -4.268 v -19.635 h 3.702 v 14.28 l 6.257,-8.557 h 0.731 l 6.395,8.529 V -19.635 H 4.236 L 4.236,0 Z" /></g><path
           id="path142"
           style="fill:#ffffff;fill-opacity:1;fill-rule:nonzero;stroke:none"
           d="M 131.383,79.179 H 416.088 V 74.966 H 131.383 Z" /></g></g></g></svg>