<?xml version="1.0" encoding="UTF-8"?>
<svg xmlns="http://www.w3.org/2000/svg" xmlns:xlink="http://www.w3.org/1999/xlink" width="500pt" height="500pt" viewBox="0 0 500 500" version="1.1">
<g id="surface1">
<path style=" stroke:none;fill-rule:nonzero;fill:rgb(89.803922%,30.196078%,24.313725%);fill-opacity:1;" d="M 0 499.800781 L 500 499.800781 L 500 0 L 0 0 Z M 0 499.800781 "/>
<path style=" stroke:none;fill-rule:evenodd;fill:rgb(100%,100%,100%);fill-opacity:1;" d="M 203.226562 215.402344 C 207.507812 210.703125 212.035156 206.421875 216.019531 201.179688 C 220.96875 194.65625 224.007812 186.367188 223.121094 175.90625 C 222.542969 169.105469 220.136719 163.5625 217.265625 158.503906 C 215.53125 155.449219 213.613281 152.632812 212.097656 149.46875 C 238.390625 174.914062 244.644531 214.445312 245.015625 258.117188 C 243.074219 243.667969 238.730469 231.679688 230.03125 224.054688 C 221.660156 216.71875 212.464844 215.328125 203.226562 215.402344 "/>
<path style=" stroke:none;fill-rule:evenodd;fill:rgb(100%,100%,100%);fill-opacity:1;" d="M 299.117188 149.441406 C 296.550781 153.941406 293.917969 157.910156 291.777344 162.40625 C 285.703125 175.175781 286.265625 188.535156 293.804688 199.289062 C 297.707031 204.855469 302.507812 208.984375 306.90625 213.75 C 307.269531 214.148438 307.6875 214.441406 308.128906 214.820312 C 303.316406 215.59375 298.613281 215.957031 294.007812 217.167969 C 279.558594 220.984375 269.808594 232.777344 266.597656 255.246094 C 266.558594 255.5 266.363281 255.695312 266.234375 255.917969 C 265.21875 213.570312 275.949219 168.054688 299.117188 149.441406 "/>
<path style=" stroke:none;fill-rule:evenodd;fill:rgb(100%,100%,100%);fill-opacity:1;" d="M 304.722656 180.773438 C 304.707031 186.003906 302.152344 189.855469 298.675781 189.921875 C 295.027344 189.984375 292.457031 186.101562 292.492188 180.554688 C 292.53125 175.277344 295.066406 171.441406 298.539062 171.417969 C 302.171875 171.382812 304.742188 175.277344 304.722656 180.773438 "/>
<path style=" stroke:none;fill-rule:evenodd;fill:rgb(100%,100%,100%);fill-opacity:1;" d="M 218.421875 180.457031 C 218.464844 186.1875 216.074219 189.917969 212.363281 189.921875 C 208.871094 189.921875 206.269531 186.082031 206.230469 180.859375 C 206.1875 175.628906 208.726562 171.542969 212.105469 171.414062 C 215.871094 171.269531 218.382812 174.867188 218.421875 180.457031 "/>
<path style=" stroke:none;fill-rule:evenodd;fill:rgb(100%,100%,100%);fill-opacity:1;" d="M 250.136719 242.4375 C 247.652344 173.886719 216.988281 140.398438 213.660156 136.972656 L 216.359375 134.652344 L 212.328125 133.03125 L 210.964844 126.996094 L 209.480469 131.265625 L 204.710938 131.265625 L 207.53125 136.304688 L 205.203125 141.277344 L 209.503906 140.503906 L 211.402344 144.808594 L 211.765625 141.390625 C 244.496094 177.6875 250.136719 242.4375 250.136719 242.4375 "/>
<path style=" stroke:none;fill-rule:evenodd;fill:rgb(100%,100%,100%);fill-opacity:1;" d="M 220.859375 137.453125 C 220.859375 137.453125 256.261719 192.089844 258.011719 255.914062 C 258.011719 255.914062 257.71875 176.03125 289.230469 137.453125 C 289.230469 137.453125 253.445312 169.402344 220.859375 137.453125 "/>
<path style=" stroke:none;fill-rule:evenodd;fill:rgb(100%,100%,100%);fill-opacity:1;" d="M 263.070312 136.1875 C 263.070312 142.894531 259.476562 148.332031 255.046875 148.332031 C 250.613281 148.332031 247.019531 142.894531 247.019531 136.1875 C 247.019531 129.480469 250.613281 124.035156 255.046875 124.035156 C 259.476562 124.035156 263.070312 129.480469 263.070312 136.1875 "/>
<path style=" stroke:none;fill-rule:evenodd;fill:rgb(100%,100%,100%);fill-opacity:1;" d="M 191.488281 220.496094 L 163.476562 251.707031 C 163.476562 251.707031 230.292969 224.320312 256.550781 306.042969 C 256.550781 306.042969 277.851562 228.296875 351.089844 251.707031 L 322.496094 220.496094 L 339.421875 245.527344 C 339.421875 245.527344 286.898438 223.882812 257.28125 293.234375 C 257.28125 293.234375 233.210938 228.742188 173.980469 245.085938 Z M 191.488281 220.496094 "/>
<path style=" stroke:none;fill-rule:evenodd;fill:rgb(100%,100%,100%);fill-opacity:1;" d="M 161.433594 266.726562 C 161.433594 266.726562 215.996094 240.226562 250.136719 306.042969 C 250.136719 306.042969 239.046875 238.914062 170.1875 255.917969 Z M 161.433594 266.726562 "/>
<path style=" stroke:none;fill-rule:evenodd;fill:rgb(100%,100%,100%);fill-opacity:1;" d="M 163.476562 282.335938 C 163.476562 282.335938 209.382812 264.078125 241.285156 298.242188 C 241.285156 298.242188 215.414062 264.964844 175.734375 269.085938 Z M 163.476562 282.335938 "/>
<path style=" stroke:none;fill-rule:evenodd;fill:rgb(100%,100%,100%);fill-opacity:1;" d="M 349.882812 266.726562 C 349.882812 266.726562 295.859375 240.226562 262.058594 306.042969 C 262.058594 306.042969 273.035156 238.914062 341.214844 255.917969 Z M 349.882812 266.726562 "/>
<path style=" stroke:none;fill-rule:evenodd;fill:rgb(100%,100%,100%);fill-opacity:1;" d="M 347.863281 282.335938 C 347.863281 282.335938 302.410156 264.078125 270.824219 298.242188 C 270.824219 298.242188 296.4375 264.964844 335.726562 269.085938 Z M 347.863281 282.335938 "/>
<path style=" stroke:none;fill-rule:evenodd;fill:rgb(100%,100%,100%);fill-opacity:1;" d="M 204.414062 144.808594 C 196.949219 160.625 192.554688 179.996094 192.554688 200.910156 C 192.554688 202.222656 192.578125 203.523438 192.617188 204.824219 C 193.207031 181.921875 198.917969 161.042969 208.035156 144.808594 Z M 204.414062 144.808594 "/>
<path style=" stroke:none;fill-rule:evenodd;fill:rgb(100%,100%,100%);fill-opacity:1;" d="M 297.476562 131.339844 L 297.476562 127.058594 C 286.367188 112.871094 272.027344 104.320312 256.355469 104.320312 C 240.15625 104.320312 225.371094 113.464844 214.117188 128.535156 L 214.683594 131.5625 L 217.226562 131.402344 C 228.183594 117.78125 241.164062 110.796875 256.355469 110.796875 C 271.378906 110.796875 285.175781 118.789062 296.074219 132.121094 Z M 297.476562 131.339844 "/>
<path style=" stroke:none;fill-rule:evenodd;fill:rgb(100%,100%,100%);fill-opacity:1;" d="M 305.972656 131.265625 L 301.246094 131.265625 L 298.832031 126.996094 L 298.425781 133.03125 L 294.304688 135.390625 L 297.476562 136.859375 C 297.476562 136.859375 296.125 138.058594 294.8125 139.535156 C 294.628906 139.746094 294.425781 139.984375 294.214844 140.238281 C 294.207031 140.242188 294.199219 140.257812 294.1875 140.261719 C 286.464844 149.425781 263.101562 181.941406 260.929688 242.4375 C 260.929688 242.4375 265.496094 180.023438 297.1875 143.570312 L 297.1875 143.558594 C 297.1875 143.558594 297.222656 143.527344 297.28125 143.460938 C 297.53125 143.179688 297.777344 142.894531 298.023438 142.609375 L 298.039062 142.6875 C 298.640625 142.078125 299.390625 141.335938 299.6875 141.128906 L 300.292969 145.316406 L 302.019531 140.300781 L 305.066406 140.503906 L 303.238281 136.199219 Z M 305.972656 131.265625 "/>
<path style=" stroke:none;fill-rule:evenodd;fill:rgb(100%,100%,100%);fill-opacity:1;" d="M 307.976562 151.195312 C 315.164062 166.363281 319.585938 184.824219 320.105469 204.824219 C 320.140625 203.523438 320.164062 202.222656 320.164062 200.910156 C 320.164062 177.9375 314.519531 156.167969 305.671875 139.585938 L 305.875 143.125 L 302.875 142.382812 C 302.875 142.382812 306.136719 147.523438 307.726562 150.683594 C 307.785156 150.804688 307.847656 150.921875 307.90625 151.039062 C 307.929688 151.09375 307.953125 151.144531 307.976562 151.195312 "/>
<path style=" stroke:none;fill-rule:nonzero;fill:rgb(100%,100%,100%);fill-opacity:1;" d="M 99.027344 334.761719 L 109.339844 334.761719 L 109.339844 375.550781 L 115.46875 375.550781 L 115.46875 334.761719 L 125.78125 334.761719 L 125.78125 326.324219 L 99.027344 326.324219 Z M 99.027344 334.761719 "/>
<path style=" stroke:none;fill-rule:nonzero;fill:rgb(100%,100%,100%);fill-opacity:1;" d="M 150.402344 354.59375 C 150.402344 363.03125 147.523438 368.167969 142.460938 368.167969 C 137.398438 368.167969 134.050781 363.453125 134.050781 354.59375 L 134.050781 326.394531 L 127.964844 326.394531 L 127.964844 354.59375 C 127.964844 369.429688 134.609375 376.605469 142.410156 376.605469 C 150.585938 376.605469 156.488281 369.152344 156.488281 354.59375 L 156.488281 326.394531 L 150.402344 326.394531 Z M 150.402344 354.59375 "/>
<path style=" stroke:none;fill-rule:nonzero;fill:rgb(100%,100%,100%);fill-opacity:1;" d="M 184.820312 326.324219 L 158.066406 326.324219 L 158.066406 334.761719 L 168.378906 334.761719 L 168.378906 375.550781 L 174.511719 375.550781 L 174.511719 334.761719 L 184.820312 334.761719 Z M 184.820312 326.324219 "/>
<path style=" stroke:none;fill-rule:nonzero;fill:rgb(100%,100%,100%);fill-opacity:1;" d="M 200.476562 368.167969 C 192.8125 368.167969 189.933594 359.515625 189.796875 351.429688 C 189.65625 343.128906 192.8125 333.777344 200.476562 333.777344 C 208.140625 333.777344 211.210938 343.058594 211.117188 351.359375 C 211.023438 359.445312 208.140625 368.167969 200.476562 368.167969 M 200.476562 325.335938 C 189.234375 325.335938 183.757812 338.351562 183.757812 351.289062 C 183.757812 364.226562 189.050781 376.675781 200.476562 376.675781 C 211.902344 376.675781 217.0625 363.945312 217.15625 351.21875 C 217.25 338.351562 211.671875 325.335938 200.476562 325.335938 "/>
<path style=" stroke:none;fill-rule:nonzero;fill:rgb(100%,100%,100%);fill-opacity:1;" d="M 235.457031 367.957031 C 227.421875 367.957031 224.308594 359.445312 224.261719 351.289062 C 224.214844 343.058594 227.605469 334.195312 235.457031 334.195312 C 238.292969 334.195312 241.167969 335.675781 243.308594 338.839844 L 247.394531 332.863281 C 244.050781 327.871094 239.871094 325.335938 235.457031 325.335938 C 223.703125 325.335938 218.179688 338.417969 218.222656 351.289062 C 218.269531 364.085938 223.378906 376.675781 235.457031 376.675781 C 240.148438 376.675781 244.46875 374.359375 247.8125 369.363281 L 243.632812 362.964844 C 241.496094 366.195312 238.292969 367.957031 235.457031 367.957031 "/>
<path style=" stroke:none;fill-rule:nonzero;fill:rgb(100%,100%,100%);fill-opacity:1;" d="M 260.023438 357.617188 L 266.0625 336.664062 L 272.101562 357.617188 Z M 262.71875 326.324219 L 248.132812 375.550781 L 254.777344 375.550781 L 257.5625 366.265625 L 274.5625 366.265625 L 277.304688 375.550781 L 283.992188 375.550781 L 269.40625 326.324219 Z M 262.71875 326.324219 "/>
<path style=" stroke:none;fill-rule:nonzero;fill:rgb(100%,100%,100%);fill-opacity:1;" d="M 300.109375 366.621094 L 293.421875 366.621094 L 293.421875 335.109375 L 300.109375 335.109375 C 307.171875 335.109375 310.140625 342.777344 310.28125 350.441406 C 310.421875 358.460938 307.496094 366.621094 300.109375 366.621094 M 300.109375 326.324219 L 287.335938 326.324219 L 287.335938 375.550781 L 300.109375 375.550781 C 311.488281 375.550781 316.507812 362.964844 316.367188 350.515625 C 316.226562 338.351562 311.257812 326.324219 300.109375 326.324219 "/>
<path style=" stroke:none;fill-rule:nonzero;fill:rgb(100%,100%,100%);fill-opacity:1;" d="M 319.476562 375.550781 L 343.820312 375.550781 L 343.820312 366.410156 L 325.5625 366.410156 L 325.5625 355.296875 L 343.171875 355.296875 L 343.171875 346.648438 L 325.5625 346.648438 L 325.5625 335.324219 L 343.820312 335.324219 L 343.820312 326.324219 L 319.476562 326.324219 Z M 319.476562 375.550781 "/>
<path style=" stroke:none;fill-rule:nonzero;fill:rgb(100%,100%,100%);fill-opacity:1;" d="M 363.328125 347.5625 L 353.15625 326.394531 L 346.09375 326.394531 L 346.09375 375.621094 L 352.226562 375.621094 L 352.226562 339.824219 L 362.585938 361.273438 L 363.792969 361.273438 L 374.382812 339.898438 L 374.382812 375.621094 L 380.515625 375.621094 L 380.515625 326.394531 L 373.5 326.394531 Z M 363.328125 347.5625 "/>
<path style=" stroke:none;fill-rule:nonzero;fill:rgb(100%,100%,100%);fill-opacity:1;" d="M 406.109375 326.324219 L 397.46875 346.648438 L 389.203125 326.324219 L 381.910156 326.324219 L 381.910156 326.742188 L 394.40625 355.222656 L 394.40625 375.550781 L 400.535156 375.550781 L 400.535156 355.222656 L 413.496094 326.742188 L 413.496094 326.324219 Z M 406.109375 326.324219 "/>
<path style=" stroke:none;fill-rule:nonzero;fill:rgb(100%,100%,100%);fill-opacity:1;" d="M 344.101562 404.339844 C 344.101562 407.632812 347.398438 407.632812 347.398438 404.339844 C 347.398438 401.042969 344.101562 401.042969 344.101562 404.339844 "/>
<path style=" stroke:none;fill-rule:nonzero;fill:rgb(100%,100%,100%);fill-opacity:1;" d="M 357.4375 402.777344 C 353.472656 402.777344 351.9375 398.578125 351.914062 394.554688 C 351.890625 390.496094 353.566406 386.125 357.4375 386.125 C 358.832031 386.125 360.253906 386.855469 361.3125 388.414062 L 363.324219 385.464844 C 361.675781 383 359.609375 381.753906 357.4375 381.753906 C 351.640625 381.753906 348.910156 388.207031 348.933594 394.554688 C 348.957031 400.871094 351.476562 407.082031 357.4375 407.082031 C 359.75 407.082031 361.882812 405.933594 363.53125 403.472656 L 361.46875 400.316406 C 360.417969 401.910156 358.832031 402.777344 357.4375 402.777344 "/>
<path style=" stroke:none;fill-rule:nonzero;fill:rgb(100%,100%,100%);fill-opacity:1;" d="M 373.179688 402.886719 C 369.398438 402.886719 367.976562 398.621094 367.910156 394.621094 C 367.835938 390.53125 369.398438 385.914062 373.179688 385.914062 C 376.960938 385.914062 378.472656 390.496094 378.425781 394.59375 C 378.378906 398.582031 376.960938 402.886719 373.179688 402.886719 M 373.179688 381.753906 C 367.628906 381.753906 364.929688 388.175781 364.929688 394.554688 C 364.929688 400.941406 367.542969 407.082031 373.179688 407.082031 C 378.8125 407.082031 381.359375 400.800781 381.40625 394.519531 C 381.449219 388.175781 378.703125 381.753906 373.179688 381.753906 "/>
<path style=" stroke:none;fill-rule:nonzero;fill:rgb(100%,100%,100%);fill-opacity:1;" d="M 397.582031 382.277344 L 392.566406 392.71875 L 387.546875 382.277344 L 384.0625 382.277344 L 384.0625 406.5625 L 387.085938 406.5625 L 387.085938 388.898438 L 392.199219 399.484375 L 392.792969 399.484375 L 398.019531 388.933594 L 398.019531 406.5625 L 401.042969 406.5625 L 401.042969 382.277344 Z M 397.582031 382.277344 "/>
<path style=" stroke:none;fill-rule:nonzero;fill:rgb(100%,100%,100%);fill-opacity:1;" d="M 107.339844 401.867188 L 339.941406 401.867188 L 339.941406 407.078125 L 107.339844 407.078125 Z M 107.339844 401.867188 "/>
</g>
</svg>
